<?xml version="1.0" encoding="UTF-8" standalone="no"?><svg xmlns="http://www.w3.org/2000/svg" xmlns:xlink="http://www.w3.org/1999/xlink" contentScriptType="application/ecmascript" contentStyleType="text/css" height="1218px" preserveAspectRatio="none" style="width:919px;height:1218px;" version="1.1" viewBox="0 0 919 1218" width="919px" zoomAndPan="magnify"><defs><filter height="300%" id="f1ndvxv78r88af" width="300%" x="-1" y="-1"><feGaussianBlur result="blurOut" stdDeviation="2.0"/><feColorMatrix in="blurOut" result="blurOut2" type="matrix" values="0 0 0 0 0 0 0 0 0 0 0 0 0 0 0 0 0 0 .4 0"/><feOffset dx="4.0" dy="4.0" in="blurOut2" result="blurOut3"/><feBlend in="SourceGraphic" in2="blurOut3" mode="normal"/></filter></defs><g><!--class Anchor--><rect fill="#F7F7F7" filter="url(#f1ndvxv78r88af)" height="93.4746" id="Anchor" style="stroke: #01172F; stroke-width: 1.5;" width="87" x="80.8214" y="927"/><ellipse cx="101.2214" cy="943" fill="#BFEDC1" rx="11" ry="11" style="stroke: #01172F; stroke-width: 1.0;"/><path d="M105.487,948.1719 Q103.9089,948.75 101.4558,948.75 Q98.9245,948.75 97.3699,947.2266 Q95.8152,945.7031 95.8152,943.2344 Q95.8152,940.7188 97.362,939.1563 Q98.9089,937.5938 101.3933,937.5938 Q103.8152,937.5938 105.3308,938.0781 L105.3308,939.9531 Q102.7683,938.8281 101.3464,938.8281 Q100.6902,938.8281 99.6277,940.0391 Q98.5652,941.25 98.5652,943.125 Q98.5652,945.0156 99.7683,946.2188 Q100.9714,947.4219 101.862,947.4219 Q103.0027,947.4219 105.487,946.5156 L105.487,948.1719 Z "/><text fill="#000000" font-family="Verdana" font-size="12" lengthAdjust="spacingAndGlyphs" textLength="43" x="116.4214" y="947.7725">Anchor</text><line style="stroke: #01172F; stroke-width: 1.5;" x1="81.8214" x2="166.8214" y1="959" y2="959"/><ellipse cx="91.8214" cy="971.1843" fill="none" rx="3" ry="3" style="stroke: #038048; stroke-width: 1.0;"/><text fill="#000000" font-family="Verdana" font-size="11" lengthAdjust="spacingAndGlyphs" textLength="61" x="100.8214" y="974.0591">x: Number</text><ellipse cx="91.8214" cy="984.553" fill="none" rx="3" ry="3" style="stroke: #038048; stroke-width: 1.0;"/><text fill="#000000" font-family="Verdana" font-size="11" lengthAdjust="spacingAndGlyphs" textLength="61" x="100.8214" y="987.4277">y: Number</text><ellipse cx="91.8214" cy="997.9216" fill="none" rx="3" ry="3" style="stroke: #038048; stroke-width: 1.0;"/><text fill="#000000" font-family="Verdana" font-size="11" lengthAdjust="spacingAndGlyphs" textLength="56" x="100.8214" y="1000.7964">name: str</text><rect fill="none" height="6" style="stroke: #C82930; stroke-width: 1.0;" width="6" x="88.8214" y="1008.2903"/><text fill="#000000" font-family="Verdana" font-size="11" lengthAdjust="spacingAndGlyphs" textLength="47" x="100.8214" y="1014.165">selected</text><!--class Axis--><rect fill="#F7F7F7" filter="url(#f1ndvxv78r88af)" height="106.8433" id="Axis" style="stroke: #01172F; stroke-width: 1.5;" width="88" x="18.3214" y="401"/><ellipse cx="47.2714" cy="417" fill="#BFEDC1" rx="11" ry="11" style="stroke: #01172F; stroke-width: 1.0;"/><path d="M51.537,422.1719 Q49.9589,422.75 47.5058,422.75 Q44.9745,422.75 43.4199,421.2266 Q41.8652,419.7031 41.8652,417.2344 Q41.8652,414.7188 43.412,413.1563 Q44.9589,411.5938 47.4433,411.5938 Q49.8652,411.5938 51.3808,412.0781 L51.3808,413.9531 Q48.8183,412.8281 47.3964,412.8281 Q46.7402,412.8281 45.6777,414.0391 Q44.6152,415.25 44.6152,417.125 Q44.6152,419.0156 45.8183,420.2188 Q47.0214,421.4219 47.912,421.4219 Q49.0527,421.4219 51.537,420.5156 L51.537,422.1719 Z "/><text fill="#000000" font-family="Verdana" font-size="12" lengthAdjust="spacingAndGlyphs" textLength="25" x="64.3714" y="421.7725">Axis</text><line style="stroke: #01172F; stroke-width: 1.5;" x1="19.3214" x2="105.3214" y1="433" y2="433"/><ellipse cx="29.3214" cy="445.1843" fill="none" rx="3" ry="3" style="stroke: #038048; stroke-width: 1.0;"/><text fill="#000000" font-family="Verdana" font-size="11" lengthAdjust="spacingAndGlyphs" textLength="59" x="38.3214" y="448.0591">tag: str[4]</text><ellipse cx="29.3214" cy="458.553" fill="none" rx="3" ry="3" style="stroke: #038048; stroke-width: 1.0;"/><text fill="#000000" font-family="Verdana" font-size="11" lengthAdjust="spacingAndGlyphs" textLength="44" x="38.3214" y="461.4277">min: int</text><ellipse cx="29.3214" cy="471.9216" fill="none" rx="3" ry="3" style="stroke: #038048; stroke-width: 1.0;"/><text fill="#000000" font-family="Verdana" font-size="11" lengthAdjust="spacingAndGlyphs" textLength="48" x="38.3214" y="474.7964">max: int</text><ellipse cx="29.3214" cy="485.2903" fill="none" rx="3" ry="3" style="stroke: #038048; stroke-width: 1.0;"/><text fill="#000000" font-family="Verdana" font-size="11" lengthAdjust="spacingAndGlyphs" textLength="62" x="38.3214" y="488.165">default: int</text><ellipse cx="29.3214" cy="498.6589" fill="none" rx="3" ry="3" style="stroke: #038048; stroke-width: 1.0;"/><text fill="#000000" font-family="Verdana" font-size="11" lengthAdjust="spacingAndGlyphs" textLength="62" x="38.3214" y="501.5337">name: str?</text><!--class Component--><rect fill="#F7F7F7" filter="url(#f1ndvxv78r88af)" height="80.106" id="Component" style="stroke: #01172F; stroke-width: 1.5;" width="147" x="202.8214" y="933.5"/><ellipse cx="236.7214" cy="949.5" fill="#BFEDC1" rx="11" ry="11" style="stroke: #01172F; stroke-width: 1.0;"/><path d="M240.987,954.6719 Q239.4089,955.25 236.9558,955.25 Q234.4245,955.25 232.8699,953.7266 Q231.3152,952.2031 231.3152,949.7344 Q231.3152,947.2188 232.862,945.6563 Q234.4089,944.0938 236.8933,944.0938 Q239.3152,944.0938 240.8308,944.5781 L240.8308,946.4531 Q238.2683,945.3281 236.8464,945.3281 Q236.1902,945.3281 235.1277,946.5391 Q234.0652,947.75 234.0652,949.625 Q234.0652,951.5156 235.2683,952.7188 Q236.4714,953.9219 237.362,953.9219 Q238.5027,953.9219 240.987,953.0156 L240.987,954.6719 Z "/><text fill="#000000" font-family="Verdana" font-size="12" lengthAdjust="spacingAndGlyphs" textLength="73" x="254.9214" y="954.2725">Component</text><line style="stroke: #01172F; stroke-width: 1.5;" x1="203.8214" x2="348.8214" y1="965.5" y2="965.5"/><ellipse cx="213.8214" cy="977.6843" fill="none" rx="3" ry="3" style="stroke: #038048; stroke-width: 1.0;"/><text fill="#000000" font-family="Verdana" font-size="11" lengthAdjust="spacingAndGlyphs" textLength="88" x="222.8214" y="980.5591">glyphName: str</text><polygon fill="none" points="213.8214,987.053,209.8214,993.053,217.8214,993.053" style="stroke: #1963A0; stroke-width: 1.0;"/><text fill="#000000" font-family="Verdana" font-size="11" lengthAdjust="spacingAndGlyphs" textLength="121" x="222.8214" y="993.9277">transformation: tuple</text><rect fill="none" height="6" style="stroke: #C82930; stroke-width: 1.0;" width="6" x="210.8214" y="1001.4216"/><text fill="#000000" font-family="Verdana" font-size="11" lengthAdjust="spacingAndGlyphs" textLength="47" x="222.8214" y="1007.2964">selected</text><!--class Feature--><rect fill="#F7F7F7" filter="url(#f1ndvxv78r88af)" height="66.7373" id="Feature" style="stroke: #01172F; stroke-width: 1.5;" width="92" x="141.3214" y="421"/><ellipse cx="161.2714" cy="437" fill="#BFEDC1" rx="11" ry="11" style="stroke: #01172F; stroke-width: 1.0;"/><path d="M165.537,442.1719 Q163.9589,442.75 161.5058,442.75 Q158.9745,442.75 157.4199,441.2266 Q155.8652,439.7031 155.8652,437.2344 Q155.8652,434.7188 157.412,433.1563 Q158.9589,431.5938 161.4433,431.5938 Q163.8652,431.5938 165.3808,432.0781 L165.3808,433.9531 Q162.8183,432.8281 161.3964,432.8281 Q160.7402,432.8281 159.6777,434.0391 Q158.6152,435.25 158.6152,437.125 Q158.6152,439.0156 159.8183,440.2188 Q161.0214,441.4219 161.912,441.4219 Q163.0527,441.4219 165.537,440.5156 L165.537,442.1719 Z "/><text fill="#000000" font-family="Verdana" font-size="12" lengthAdjust="spacingAndGlyphs" textLength="49" x="176.3714" y="441.7725">Feature</text><line style="stroke: #01172F; stroke-width: 1.5;" x1="142.3214" x2="232.3214" y1="453" y2="453"/><ellipse cx="152.3214" cy="465.1843" fill="none" rx="3" ry="3" style="stroke: #038048; stroke-width: 1.0;"/><text fill="#000000" font-family="Verdana" font-size="11" lengthAdjust="spacingAndGlyphs" textLength="59" x="161.3214" y="468.0591">tag: str[4]</text><ellipse cx="152.3214" cy="478.553" fill="none" rx="3" ry="3" style="stroke: #038048; stroke-width: 1.0;"/><text fill="#000000" font-family="Verdana" font-size="11" lengthAdjust="spacingAndGlyphs" textLength="66" x="161.3214" y="481.4277">content: str</text><!--class Font--><rect fill="#F7F7F7" filter="url(#f1ndvxv78r88af)" height="256.5298" id="Font" style="stroke: #01172F; stroke-width: 1.5;" width="158" x="279.3214" y="8"/><ellipse cx="340.0714" cy="24" fill="#BFEDC1" rx="11" ry="11" style="stroke: #01172F; stroke-width: 1.0;"/><path d="M344.337,29.1719 Q342.7589,29.75 340.3058,29.75 Q337.7745,29.75 336.2199,28.2266 Q334.6652,26.7031 334.6652,24.2344 Q334.6652,21.7188 336.212,20.1563 Q337.7589,18.5938 340.2433,18.5938 Q342.6652,18.5938 344.1808,19.0781 L344.1808,20.9531 Q341.6183,19.8281 340.1964,19.8281 Q339.5402,19.8281 338.4777,21.0391 Q337.4152,22.25 337.4152,24.125 Q337.4152,26.0156 338.6183,27.2188 Q339.8214,28.4219 340.712,28.4219 Q341.8527,28.4219 344.337,27.5156 L344.337,29.1719 Z "/><text fill="#000000" font-family="Verdana" font-size="12" lengthAdjust="spacingAndGlyphs" textLength="28" x="360.5714" y="28.7725">Font</text><line style="stroke: #01172F; stroke-width: 1.5;" x1="280.3214" x2="436.3214" y1="40" y2="40"/><ellipse cx="290.3214" cy="52.1843" fill="none" rx="3" ry="3" style="stroke: #038048; stroke-width: 1.0;"/><text fill="#000000" font-family="Verdana" font-size="11" lengthAdjust="spacingAndGlyphs" textLength="84" x="299.3214" y="55.0591">date: datetime</text><ellipse cx="290.3214" cy="65.553" fill="none" rx="3" ry="3" style="stroke: #038048; stroke-width: 1.0;"/><text fill="#000000" font-family="Verdana" font-size="11" lengthAdjust="spacingAndGlyphs" textLength="92" x="299.3214" y="68.4277">familyName: str</text><line style="stroke: #01172F; stroke-width: 1.0;" x1="280.3214" x2="436.3214" y1="74.7373" y2="74.7373"/><ellipse cx="290.3214" cy="86.9216" fill="none" rx="3" ry="3" style="stroke: #038048; stroke-width: 1.0;"/><text fill="#000000" font-family="Verdana" font-size="11" lengthAdjust="spacingAndGlyphs" textLength="77" x="299.3214" y="89.7964">copyright: str</text><ellipse cx="290.3214" cy="100.2903" fill="none" rx="3" ry="3" style="stroke: #038048; stroke-width: 1.0;"/><text fill="#000000" font-family="Verdana" font-size="11" lengthAdjust="spacingAndGlyphs" textLength="73" x="299.3214" y="103.165">designer: str</text><ellipse cx="290.3214" cy="113.6589" fill="none" rx="3" ry="3" style="stroke: #038048; stroke-width: 1.0;"/><text fill="#000000" font-family="Verdana" font-size="11" lengthAdjust="spacingAndGlyphs" textLength="95" x="299.3214" y="116.5337">designerURL: str</text><ellipse cx="290.3214" cy="127.0276" fill="none" rx="3" ry="3" style="stroke: #038048; stroke-width: 1.0;"/><text fill="#000000" font-family="Verdana" font-size="11" lengthAdjust="spacingAndGlyphs" textLength="101" x="299.3214" y="129.9023">manufacturer: str</text><ellipse cx="290.3214" cy="140.3962" fill="none" rx="3" ry="3" style="stroke: #038048; stroke-width: 1.0;"/><text fill="#000000" font-family="Verdana" font-size="11" lengthAdjust="spacingAndGlyphs" textLength="123" x="299.3214" y="143.271">manufacturerURL: str</text><ellipse cx="290.3214" cy="153.7649" fill="none" rx="3" ry="3" style="stroke: #038048; stroke-width: 1.0;"/><text fill="#000000" font-family="Verdana" font-size="11" lengthAdjust="spacingAndGlyphs" textLength="87" x="299.3214" y="156.6396">unitsPerEm: int</text><ellipse cx="290.3214" cy="167.1335" fill="none" rx="3" ry="3" style="stroke: #038048; stroke-width: 1.0;"/><text fill="#000000" font-family="Verdana" font-size="11" lengthAdjust="spacingAndGlyphs" textLength="97" x="299.3214" y="170.0083">versionMajor: int</text><ellipse cx="290.3214" cy="180.5022" fill="none" rx="3" ry="3" style="stroke: #038048; stroke-width: 1.0;"/><text fill="#000000" font-family="Verdana" font-size="11" lengthAdjust="spacingAndGlyphs" textLength="96" x="299.3214" y="183.377">versionMinor: int</text><line style="stroke: #01172F; stroke-width: 1.0;" x1="280.3214" x2="436.3214" y1="189.6865" y2="189.6865"/><ellipse cx="290.3214" cy="201.8708" fill="none" rx="3" ry="3" style="stroke: #038048; stroke-width: 1.0;"/><text fill="#000000" font-family="Verdana" font-size="11" lengthAdjust="spacingAndGlyphs" textLength="86" x="299.3214" y="204.7456">extraData: dict</text><rect fill="none" height="6" style="stroke: #C82930; stroke-width: 1.0;" width="6" x="287.3214" y="212.2395"/><text fill="#000000" font-family="Verdana" font-size="11" lengthAdjust="spacingAndGlyphs" textLength="60" x="299.3214" y="218.1143">cmap: dict</text><rect fill="none" height="6" style="stroke: #C82930; stroke-width: 1.0;" width="6" x="287.3214" y="225.6082"/><text fill="#000000" font-family="Verdana" font-size="11" lengthAdjust="spacingAndGlyphs" textLength="73" x="299.3214" y="231.4829">layoutEngine</text><rect fill="none" height="6" style="stroke: #C82930; stroke-width: 1.0;" width="6" x="287.3214" y="238.9768"/><text fill="#000000" font-family="Verdana" font-size="11" lengthAdjust="spacingAndGlyphs" textLength="82" x="299.3214" y="244.8516">modified: bool</text><rect fill="none" height="6" style="stroke: #C82930; stroke-width: 1.0;" width="6" x="287.3214" y="252.3455"/><text fill="#000000" font-family="Verdana" font-size="11" lengthAdjust="spacingAndGlyphs" textLength="132" x="299.3214" y="258.2202">selectedMaster: Master</text><!--class Glyph--><rect fill="#F7F7F7" filter="url(#f1ndvxv78r88af)" height="149.5806" id="Glyph" style="stroke: #01172F; stroke-width: 1.5;" width="180" x="268.3214" y="379.5"/><ellipse cx="336.5714" cy="395.5" fill="#BFEDC1" rx="11" ry="11" style="stroke: #01172F; stroke-width: 1.0;"/><path d="M340.837,400.6719 Q339.2589,401.25 336.8058,401.25 Q334.2745,401.25 332.7199,399.7266 Q331.1652,398.2031 331.1652,395.7344 Q331.1652,393.2188 332.712,391.6563 Q334.2589,390.0938 336.7433,390.0938 Q339.1652,390.0938 340.6808,390.5781 L340.6808,392.4531 Q338.1183,391.3281 336.6964,391.3281 Q336.0402,391.3281 334.9777,392.5391 Q333.9152,393.75 333.9152,395.625 Q333.9152,397.5156 335.1183,398.7188 Q336.3214,399.9219 337.212,399.9219 Q338.3527,399.9219 340.837,399.0156 L340.837,400.6719 Z "/><text fill="#000000" font-family="Verdana" font-size="12" lengthAdjust="spacingAndGlyphs" textLength="35" x="357.0714" y="400.2725">Glyph</text><line style="stroke: #01172F; stroke-width: 1.5;" x1="269.3214" x2="447.3214" y1="411.5" y2="411.5"/><ellipse cx="279.3214" cy="423.6843" fill="none" rx="3" ry="3" style="stroke: #038048; stroke-width: 1.0;"/><text fill="#000000" font-family="Verdana" font-size="11" lengthAdjust="spacingAndGlyphs" textLength="56" x="288.3214" y="426.5591">name: str</text><ellipse cx="279.3214" cy="437.053" fill="none" rx="3" ry="3" style="stroke: #038048; stroke-width: 1.0;"/><text fill="#000000" font-family="Verdana" font-size="11" lengthAdjust="spacingAndGlyphs" textLength="103" x="288.3214" y="439.9277">unicodes: List[str]</text><line style="stroke: #01172F; stroke-width: 1.0;" x1="269.3214" x2="447.3214" y1="446.2373" y2="446.2373"/><ellipse cx="279.3214" cy="458.4216" fill="none" rx="3" ry="3" style="stroke: #038048; stroke-width: 1.0;"/><text fill="#000000" font-family="Verdana" font-size="11" lengthAdjust="spacingAndGlyphs" textLength="154" x="288.3214" y="461.2964">{l,r,b,t}KerningGroup: str?</text><line style="stroke: #01172F; stroke-width: 1.0;" x1="269.3214" x2="447.3214" y1="467.606" y2="467.606"/><ellipse cx="279.3214" cy="479.7903" fill="none" rx="3" ry="3" style="stroke: #038048; stroke-width: 1.0;"/><text fill="#000000" font-family="Verdana" font-size="11" lengthAdjust="spacingAndGlyphs" textLength="65" x="288.3214" y="482.665">color: tuple</text><polygon fill="none" points="279.3214,489.1589,275.3214,495.1589,283.3214,495.1589" style="stroke: #1963A0; stroke-width: 1.0;"/><text fill="#000000" font-family="Verdana" font-size="11" lengthAdjust="spacingAndGlyphs" textLength="86" x="288.3214" y="496.0337">extraData: dict</text><rect fill="none" height="6" style="stroke: #C82930; stroke-width: 1.0;" width="6" x="276.3214" y="503.5276"/><text fill="#000000" font-family="Verdana" font-size="11" lengthAdjust="spacingAndGlyphs" textLength="107" x="288.3214" y="509.4023">lastModified: float?</text><rect fill="none" height="6" style="stroke: #C82930; stroke-width: 1.0;" width="6" x="276.3214" y="516.8962"/><text fill="#000000" font-family="Verdana" font-size="11" lengthAdjust="spacingAndGlyphs" textLength="47" x="288.3214" y="522.771">selected</text><!--class Guideline--><rect fill="#F7F7F7" filter="url(#f1ndvxv78r88af)" height="106.8433" id="Guideline" style="stroke: #01172F; stroke-width: 1.5;" width="111" x="384.8214" y="920"/><ellipse cx="409.2714" cy="936" fill="#BFEDC1" rx="11" ry="11" style="stroke: #01172F; stroke-width: 1.0;"/><path d="M413.537,941.1719 Q411.9589,941.75 409.5058,941.75 Q406.9745,941.75 405.4199,940.2266 Q403.8652,938.7031 403.8652,936.2344 Q403.8652,933.7188 405.412,932.1563 Q406.9589,930.5938 409.4433,930.5938 Q411.8652,930.5938 413.3808,931.0781 L413.3808,932.9531 Q410.8183,931.8281 409.3964,931.8281 Q408.7402,931.8281 407.6777,933.0391 Q406.6152,934.25 406.6152,936.125 Q406.6152,938.0156 407.8183,939.2188 Q409.0214,940.4219 409.912,940.4219 Q411.0527,940.4219 413.537,939.5156 L413.537,941.1719 Z "/><text fill="#000000" font-family="Verdana" font-size="12" lengthAdjust="spacingAndGlyphs" textLength="58" x="425.3714" y="940.7725">Guideline</text><line style="stroke: #01172F; stroke-width: 1.5;" x1="385.8214" x2="494.8214" y1="952" y2="952"/><ellipse cx="395.8214" cy="964.1843" fill="none" rx="3" ry="3" style="stroke: #038048; stroke-width: 1.0;"/><text fill="#000000" font-family="Verdana" font-size="11" lengthAdjust="spacingAndGlyphs" textLength="61" x="404.8214" y="967.0591">x: Number</text><ellipse cx="395.8214" cy="977.553" fill="none" rx="3" ry="3" style="stroke: #038048; stroke-width: 1.0;"/><text fill="#000000" font-family="Verdana" font-size="11" lengthAdjust="spacingAndGlyphs" textLength="61" x="404.8214" y="980.4277">y: Number</text><ellipse cx="395.8214" cy="990.9216" fill="none" rx="3" ry="3" style="stroke: #038048; stroke-width: 1.0;"/><text fill="#000000" font-family="Verdana" font-size="11" lengthAdjust="spacingAndGlyphs" textLength="85" x="404.8214" y="993.7964">angle: Number</text><ellipse cx="395.8214" cy="1004.2903" fill="none" rx="3" ry="3" style="stroke: #038048; stroke-width: 1.0;"/><text fill="#000000" font-family="Verdana" font-size="11" lengthAdjust="spacingAndGlyphs" textLength="62" x="404.8214" y="1007.165">name: str?</text><rect fill="none" height="6" style="stroke: #C82930; stroke-width: 1.0;" width="6" x="392.8214" y="1014.6589"/><text fill="#000000" font-family="Verdana" font-size="11" lengthAdjust="spacingAndGlyphs" textLength="47" x="404.8214" y="1020.5337">selected</text><!--class Instance--><rect fill="#F7F7F7" filter="url(#f1ndvxv78r88af)" height="168.3179" id="Instance" style="stroke: #01172F; stroke-width: 1.5;" width="180" x="483.3214" y="370.5"/><ellipse cx="541.5714" cy="386.5" fill="#BFEDC1" rx="11" ry="11" style="stroke: #01172F; stroke-width: 1.0;"/><path d="M545.837,391.6719 Q544.2589,392.25 541.8058,392.25 Q539.2745,392.25 537.7199,390.7266 Q536.1652,389.2031 536.1652,386.7344 Q536.1652,384.2188 537.712,382.6563 Q539.2589,381.0938 541.7433,381.0938 Q544.1652,381.0938 545.6808,381.5781 L545.6808,383.4531 Q543.1183,382.3281 541.6964,382.3281 Q541.0402,382.3281 539.9777,383.5391 Q538.9152,384.75 538.9152,386.625 Q538.9152,388.5156 540.1183,389.7188 Q541.3214,390.9219 542.212,390.9219 Q543.3527,390.9219 545.837,390.0156 L545.837,391.6719 Z "/><text fill="#000000" font-family="Verdana" font-size="12" lengthAdjust="spacingAndGlyphs" textLength="55" x="562.0714" y="391.2725">Instance</text><line style="stroke: #01172F; stroke-width: 1.5;" x1="484.3214" x2="662.3214" y1="402.5" y2="402.5"/><ellipse cx="494.3214" cy="414.6843" fill="none" rx="3" ry="3" style="stroke: #038048; stroke-width: 1.0;"/><text fill="#000000" font-family="Verdana" font-size="11" lengthAdjust="spacingAndGlyphs" textLength="92" x="503.3214" y="417.5591">familyName: str</text><ellipse cx="494.3214" cy="428.053" fill="none" rx="3" ry="3" style="stroke: #038048; stroke-width: 1.0;"/><text fill="#000000" font-family="Verdana" font-size="11" lengthAdjust="spacingAndGlyphs" textLength="84" x="503.3214" y="430.9277">styleName: str</text><ellipse cx="494.3214" cy="441.4216" fill="none" rx="3" ry="3" style="stroke: #038048; stroke-width: 1.0;"/><text fill="#000000" font-family="Verdana" font-size="11" lengthAdjust="spacingAndGlyphs" textLength="122" x="503.3214" y="444.2964">location: Dict[str, int]</text><line style="stroke: #01172F; stroke-width: 1.0;" x1="484.3214" x2="662.3214" y1="450.606" y2="450.606"/><ellipse cx="494.3214" cy="462.7903" fill="none" rx="3" ry="3" style="stroke: #038048; stroke-width: 1.0;"/><text fill="#000000" font-family="Verdana" font-size="11" lengthAdjust="spacingAndGlyphs" textLength="57" x="503.3214" y="465.665">bold: bool</text><ellipse cx="494.3214" cy="476.1589" fill="none" rx="3" ry="3" style="stroke: #038048; stroke-width: 1.0;"/><text fill="#000000" font-family="Verdana" font-size="11" lengthAdjust="spacingAndGlyphs" textLength="59" x="503.3214" y="479.0337">italic: bool</text><ellipse cx="494.3214" cy="489.5276" fill="none" rx="3" ry="3" style="stroke: #038048; stroke-width: 1.0;"/><text fill="#000000" font-family="Verdana" font-size="11" lengthAdjust="spacingAndGlyphs" textLength="154" x="503.3214" y="492.4023">preferredFamilyName: str?</text><ellipse cx="494.3214" cy="502.8962" fill="none" rx="3" ry="3" style="stroke: #038048; stroke-width: 1.0;"/><text fill="#000000" font-family="Verdana" font-size="11" lengthAdjust="spacingAndGlyphs" textLength="144" x="503.3214" y="505.771">preferredSubfamilyName</text><ellipse cx="494.3214" cy="516.2649" fill="none" rx="3" ry="3" style="stroke: #038048; stroke-width: 1.0;"/><text fill="#000000" font-family="Verdana" font-size="11" lengthAdjust="spacingAndGlyphs" textLength="112" x="503.3214" y="519.1396">postscriptFontName</text><ellipse cx="494.3214" cy="529.6335" fill="none" rx="3" ry="3" style="stroke: #038048; stroke-width: 1.0;"/><text fill="#000000" font-family="Verdana" font-size="11" lengthAdjust="spacingAndGlyphs" textLength="107" x="503.3214" y="532.5083">postscriptFullName</text><!--class Layer--><rect fill="#F7F7F7" filter="url(#f1ndvxv78r88af)" height="216.4238" id="Layer" style="stroke: #01172F; stroke-width: 1.5;" width="154" x="281.3214" y="644"/><ellipse cx="336.5714" cy="660" fill="#BFEDC1" rx="11" ry="11" style="stroke: #01172F; stroke-width: 1.0;"/><path d="M340.837,665.1719 Q339.2589,665.75 336.8058,665.75 Q334.2745,665.75 332.7199,664.2266 Q331.1652,662.7031 331.1652,660.2344 Q331.1652,657.7188 332.712,656.1563 Q334.2589,654.5938 336.7433,654.5938 Q339.1652,654.5938 340.6808,655.0781 L340.6808,656.9531 Q338.1183,655.8281 336.6964,655.8281 Q336.0402,655.8281 334.9777,657.0391 Q333.9152,658.25 333.9152,660.125 Q333.9152,662.0156 335.1183,663.2188 Q336.3214,664.4219 337.212,664.4219 Q338.3527,664.4219 340.837,663.5156 L340.837,665.1719 Z "/><text fill="#000000" font-family="Verdana" font-size="12" lengthAdjust="spacingAndGlyphs" textLength="35" x="357.0714" y="664.7725">Layer</text><line style="stroke: #01172F; stroke-width: 1.5;" x1="282.3214" x2="434.3214" y1="676" y2="676"/><ellipse cx="292.3214" cy="688.1843" fill="none" rx="3" ry="3" style="stroke: #038048; stroke-width: 1.0;"/><text fill="#000000" font-family="Verdana" font-size="11" lengthAdjust="spacingAndGlyphs" textLength="97" x="301.3214" y="691.0591">masterName: str</text><polygon fill="none" points="292.3214,697.553,288.3214,703.553,296.3214,703.553" style="stroke: #1963A0; stroke-width: 1.0;"/><text fill="#000000" font-family="Verdana" font-size="11" lengthAdjust="spacingAndGlyphs" textLength="56" x="301.3214" y="704.4277">name: str</text><ellipse cx="292.3214" cy="714.9216" fill="none" rx="3" ry="3" style="stroke: #038048; stroke-width: 1.0;"/><text fill="#000000" font-family="Verdana" font-size="11" lengthAdjust="spacingAndGlyphs" textLength="128" x="301.3214" y="717.7964">location: Dict[str, int]?</text><line style="stroke: #01172F; stroke-width: 1.0;" x1="282.3214" x2="434.3214" y1="724.106" y2="724.106"/><ellipse cx="292.3214" cy="736.2903" fill="none" rx="3" ry="3" style="stroke: #038048; stroke-width: 1.0;"/><text fill="#000000" font-family="Verdana" font-size="11" lengthAdjust="spacingAndGlyphs" textLength="84" x="301.3214" y="739.165">width: Number</text><ellipse cx="292.3214" cy="749.6589" fill="none" rx="3" ry="3" style="stroke: #038048; stroke-width: 1.0;"/><text fill="#000000" font-family="Verdana" font-size="11" lengthAdjust="spacingAndGlyphs" textLength="89" x="301.3214" y="752.5337">height: Number</text><ellipse cx="292.3214" cy="763.0276" fill="none" rx="3" ry="3" style="stroke: #038048; stroke-width: 1.0;"/><text fill="#000000" font-family="Verdana" font-size="11" lengthAdjust="spacingAndGlyphs" textLength="101" x="301.3214" y="765.9023">yOrigin: Number?</text><line style="stroke: #01172F; stroke-width: 1.0;" x1="282.3214" x2="434.3214" y1="772.2119" y2="772.2119"/><ellipse cx="292.3214" cy="784.3962" fill="none" rx="3" ry="3" style="stroke: #038048; stroke-width: 1.0;"/><text fill="#000000" font-family="Verdana" font-size="11" lengthAdjust="spacingAndGlyphs" textLength="65" x="301.3214" y="787.271">color: tuple</text><polygon fill="none" points="292.3214,793.7649,288.3214,799.7649,296.3214,799.7649" style="stroke: #1963A0; stroke-width: 1.0;"/><text fill="#000000" font-family="Verdana" font-size="11" lengthAdjust="spacingAndGlyphs" textLength="86" x="301.3214" y="800.6396">extraData: dict</text><rect fill="none" height="6" style="stroke: #C82930; stroke-width: 1.0;" width="6" x="289.3214" y="808.1335"/><text fill="#000000" font-family="Verdana" font-size="11" lengthAdjust="spacingAndGlyphs" textLength="41" x="301.3214" y="814.0083">bounds</text><rect fill="none" height="6" style="stroke: #C82930; stroke-width: 1.0;" width="6" x="289.3214" y="821.5022"/><text fill="#000000" font-family="Verdana" font-size="11" lengthAdjust="spacingAndGlyphs" textLength="73" x="301.3214" y="827.377">graphicsPath</text><rect fill="none" height="6" style="stroke: #C82930; stroke-width: 1.0;" width="6" x="289.3214" y="834.8708"/><text fill="#000000" font-family="Verdana" font-size="11" lengthAdjust="spacingAndGlyphs" textLength="50" x="301.3214" y="840.7456">selection</text><rect fill="none" height="6" style="stroke: #C82930; stroke-width: 1.0;" width="6" x="289.3214" y="848.2395"/><text fill="#000000" font-family="Verdana" font-size="11" lengthAdjust="spacingAndGlyphs" textLength="36" x="301.3214" y="854.1143">visible</text><!--class Master--><rect fill="#F7F7F7" filter="url(#f1ndvxv78r88af)" height="259.1611" id="Master" style="stroke: #01172F; stroke-width: 1.5;" width="210" x="698.3214" y="325"/><ellipse cx="777.5714" cy="341" fill="#BFEDC1" rx="11" ry="11" style="stroke: #01172F; stroke-width: 1.0;"/><path d="M781.837,346.1719 Q780.2589,346.75 777.8058,346.75 Q775.2745,346.75 773.7199,345.2266 Q772.1652,343.7031 772.1652,341.2344 Q772.1652,338.7188 773.712,337.1563 Q775.2589,335.5938 777.7433,335.5938 Q780.1652,335.5938 781.6808,336.0781 L781.6808,337.9531 Q779.1183,336.8281 777.6964,336.8281 Q777.0402,336.8281 775.9777,338.0391 Q774.9152,339.25 774.9152,341.125 Q774.9152,343.0156 776.1183,344.2188 Q777.3214,345.4219 778.212,345.4219 Q779.3527,345.4219 781.837,344.5156 L781.837,346.1719 Z "/><text fill="#000000" font-family="Verdana" font-size="12" lengthAdjust="spacingAndGlyphs" textLength="43" x="798.0714" y="345.7725">Master</text><line style="stroke: #01172F; stroke-width: 1.5;" x1="699.3214" x2="907.3214" y1="357" y2="357"/><ellipse cx="709.3214" cy="369.1843" fill="none" rx="3" ry="3" style="stroke: #038048; stroke-width: 1.0;"/><text fill="#000000" font-family="Verdana" font-size="11" lengthAdjust="spacingAndGlyphs" textLength="56" x="718.3214" y="372.0591">name: str</text><ellipse cx="709.3214" cy="382.553" fill="none" rx="3" ry="3" style="stroke: #038048; stroke-width: 1.0;"/><text fill="#000000" font-family="Verdana" font-size="11" lengthAdjust="spacingAndGlyphs" textLength="122" x="718.3214" y="385.4277">location: Dict[str, int]</text><line style="stroke: #01172F; stroke-width: 1.0;" x1="699.3214" x2="907.3214" y1="391.7373" y2="391.7373"/><ellipse cx="709.3214" cy="403.9216" fill="none" rx="3" ry="3" style="stroke: #038048; stroke-width: 1.0;"/><text fill="#000000" font-family="Verdana" font-size="11" lengthAdjust="spacingAndGlyphs" textLength="91" x="718.3214" y="406.7964">alignmentZones</text><ellipse cx="709.3214" cy="417.2903" fill="none" rx="3" ry="3" style="stroke: #038048; stroke-width: 1.0;"/><text fill="#000000" font-family="Verdana" font-size="11" lengthAdjust="spacingAndGlyphs" textLength="95" x="718.3214" y="420.165">hStems: List[int]</text><ellipse cx="709.3214" cy="430.6589" fill="none" rx="3" ry="3" style="stroke: #038048; stroke-width: 1.0;"/><text fill="#000000" font-family="Verdana" font-size="11" lengthAdjust="spacingAndGlyphs" textLength="43" x="718.3214" y="433.5337">vStems</text><line style="stroke: #01172F; stroke-width: 1.0;" x1="699.3214" x2="907.3214" y1="439.8433" y2="439.8433"/><ellipse cx="709.3214" cy="452.0276" fill="none" rx="3" ry="3" style="stroke: #038048; stroke-width: 1.0;"/><text fill="#000000" font-family="Verdana" font-size="11" lengthAdjust="spacingAndGlyphs" textLength="57" x="718.3214" y="454.9023">guidelines</text><ellipse cx="709.3214" cy="465.3962" fill="none" rx="3" ry="3" style="stroke: #038048; stroke-width: 1.0;"/><text fill="#000000" font-family="Verdana" font-size="11" lengthAdjust="spacingAndGlyphs" textLength="184" x="718.3214" y="468.271">hKerning: Dict[str, Dict[str, int]]</text><ellipse cx="709.3214" cy="478.7649" fill="none" rx="3" ry="3" style="stroke: #038048; stroke-width: 1.0;"/><text fill="#000000" font-family="Verdana" font-size="11" lengthAdjust="spacingAndGlyphs" textLength="51" x="718.3214" y="481.6396">vKerning</text><line style="stroke: #01172F; stroke-width: 1.0;" x1="699.3214" x2="907.3214" y1="487.9492" y2="487.9492"/><ellipse cx="709.3214" cy="500.1335" fill="none" rx="3" ry="3" style="stroke: #038048; stroke-width: 1.0;"/><text fill="#000000" font-family="Verdana" font-size="11" lengthAdjust="spacingAndGlyphs" textLength="75" x="718.3214" y="503.0083">ascender: int</text><ellipse cx="709.3214" cy="513.5022" fill="none" rx="3" ry="3" style="stroke: #038048; stroke-width: 1.0;"/><text fill="#000000" font-family="Verdana" font-size="11" lengthAdjust="spacingAndGlyphs" textLength="79" x="718.3214" y="516.377">capHeight: int</text><ellipse cx="709.3214" cy="526.8708" fill="none" rx="3" ry="3" style="stroke: #038048; stroke-width: 1.0;"/><text fill="#000000" font-family="Verdana" font-size="11" lengthAdjust="spacingAndGlyphs" textLength="82" x="718.3214" y="529.7456">descender: int</text><ellipse cx="709.3214" cy="540.2395" fill="none" rx="3" ry="3" style="stroke: #038048; stroke-width: 1.0;"/><text fill="#000000" font-family="Verdana" font-size="11" lengthAdjust="spacingAndGlyphs" textLength="92" x="718.3214" y="543.1143">italicAngle: float</text><ellipse cx="709.3214" cy="553.6082" fill="none" rx="3" ry="3" style="stroke: #038048; stroke-width: 1.0;"/><text fill="#000000" font-family="Verdana" font-size="11" lengthAdjust="spacingAndGlyphs" textLength="66" x="718.3214" y="556.4829">xHeight: int</text><line style="stroke: #01172F; stroke-width: 1.0;" x1="699.3214" x2="907.3214" y1="562.7925" y2="562.7925"/><rect fill="none" height="6" style="stroke: #C82930; stroke-width: 1.0;" width="6" x="706.3214" y="571.9768"/><text fill="#000000" font-family="Verdana" font-size="11" lengthAdjust="spacingAndGlyphs" textLength="36" x="718.3214" y="577.8516">visible</text><!--class Path--><rect fill="#F7F7F7" filter="url(#f1ndvxv78r88af)" height="88.106" id="Path" style="stroke: #01172F; stroke-width: 1.5;" width="99" x="530.8214" y="929.5"/><ellipse cx="562.9214" cy="945.5" fill="#BFEDC1" rx="11" ry="11" style="stroke: #01172F; stroke-width: 1.0;"/><path d="M567.187,950.6719 Q565.6089,951.25 563.1558,951.25 Q560.6245,951.25 559.0699,949.7266 Q557.5152,948.2031 557.5152,945.7344 Q557.5152,943.2188 559.062,941.6563 Q560.6089,940.0938 563.0933,940.0938 Q565.5152,940.0938 567.0308,940.5781 L567.0308,942.4531 Q564.4683,941.3281 563.0464,941.3281 Q562.3902,941.3281 561.3277,942.5391 Q560.2652,943.75 560.2652,945.625 Q560.2652,947.5156 561.4683,948.7188 Q562.6714,949.9219 563.562,949.9219 Q564.7027,949.9219 567.187,949.0156 L567.187,950.6719 Z "/><text fill="#000000" font-family="Verdana" font-size="12" lengthAdjust="spacingAndGlyphs" textLength="29" x="580.7214" y="950.2725">Path</text><line style="stroke: #01172F; stroke-width: 1.5;" x1="531.8214" x2="628.8214" y1="961.5" y2="961.5"/><ellipse cx="541.8214" cy="973.6843" fill="none" rx="3" ry="3" style="stroke: #038048; stroke-width: 1.0;"/><text fill="#000000" font-family="Verdana" font-size="11" lengthAdjust="spacingAndGlyphs" textLength="10" x="550.8214" y="976.5591">id</text><line style="stroke: #01172F; stroke-width: 1.0;" x1="531.8214" x2="628.8214" y1="982.8687" y2="982.8687"/><rect fill="none" height="6" style="stroke: #C82930; stroke-width: 1.0;" width="6" x="538.8214" y="992.053"/><text fill="#000000" font-family="Verdana" font-size="11" lengthAdjust="spacingAndGlyphs" textLength="41" x="550.8214" y="997.9277">bounds</text><rect fill="none" height="6" style="stroke: #C82930; stroke-width: 1.0;" width="6" x="538.8214" y="1005.4216"/><text fill="#000000" font-family="Verdana" font-size="11" lengthAdjust="spacingAndGlyphs" textLength="73" x="550.8214" y="1011.2964">graphicsPath</text><!--class Point--><rect fill="#F7F7F7" filter="url(#f1ndvxv78r88af)" height="120.2119" id="Point" style="stroke: #01172F; stroke-width: 1.5;" width="112" x="524.3214" y="1087"/><ellipse cx="560.9214" cy="1103" fill="#BFEDC1" rx="11" ry="11" style="stroke: #01172F; stroke-width: 1.0;"/><path d="M565.187,1108.1719 Q563.6089,1108.75 561.1558,1108.75 Q558.6245,1108.75 557.0699,1107.2266 Q555.5152,1105.7031 555.5152,1103.2344 Q555.5152,1100.7188 557.062,1099.1563 Q558.6089,1097.5938 561.0933,1097.5938 Q563.5152,1097.5938 565.0308,1098.0781 L565.0308,1099.9531 Q562.4683,1098.8281 561.0464,1098.8281 Q560.3902,1098.8281 559.3277,1100.0391 Q558.2652,1101.25 558.2652,1103.125 Q558.2652,1105.0156 559.4683,1106.2188 Q560.6714,1107.4219 561.562,1107.4219 Q562.7027,1107.4219 565.187,1106.5156 L565.187,1108.1719 Z "/><text fill="#000000" font-family="Verdana" font-size="12" lengthAdjust="spacingAndGlyphs" textLength="32" x="579.7214" y="1107.7725">Point</text><line style="stroke: #01172F; stroke-width: 1.5;" x1="525.3214" x2="635.3214" y1="1119" y2="1119"/><ellipse cx="535.3214" cy="1131.1843" fill="none" rx="3" ry="3" style="stroke: #038048; stroke-width: 1.0;"/><text fill="#000000" font-family="Verdana" font-size="11" lengthAdjust="spacingAndGlyphs" textLength="61" x="544.3214" y="1134.0591">x: Number</text><ellipse cx="535.3214" cy="1144.553" fill="none" rx="3" ry="3" style="stroke: #038048; stroke-width: 1.0;"/><text fill="#000000" font-family="Verdana" font-size="11" lengthAdjust="spacingAndGlyphs" textLength="61" x="544.3214" y="1147.4277">y: Number</text><ellipse cx="535.3214" cy="1157.9216" fill="none" rx="3" ry="3" style="stroke: #038048; stroke-width: 1.0;"/><text fill="#000000" font-family="Verdana" font-size="11" lengthAdjust="spacingAndGlyphs" textLength="49" x="544.3214" y="1160.7964">type: str</text><ellipse cx="535.3214" cy="1171.2903" fill="none" rx="3" ry="3" style="stroke: #038048; stroke-width: 1.0;"/><text fill="#000000" font-family="Verdana" font-size="11" lengthAdjust="spacingAndGlyphs" textLength="75" x="544.3214" y="1174.165">smooth: bool</text><polygon fill="none" points="535.3214,1180.6589,531.3214,1186.6589,539.3214,1186.6589" style="stroke: #1963A0; stroke-width: 1.0;"/><text fill="#000000" font-family="Verdana" font-size="11" lengthAdjust="spacingAndGlyphs" textLength="86" x="544.3214" y="1187.5337">extraData: dict</text><rect fill="none" height="6" style="stroke: #C82930; stroke-width: 1.0;" width="6" x="532.3214" y="1195.0276"/><text fill="#000000" font-family="Verdana" font-size="11" lengthAdjust="spacingAndGlyphs" textLength="47" x="544.3214" y="1200.9023">selected</text><!--link Font to Axis--><path d="M268.2774,194.56 C220.6284,228.133 163.7784,273.963 123.3214,325 C105.4494,347.545 91.2109,376.183 81,400.698 " fill="none" id="Font-Axis" style="stroke: #7A6563; stroke-width: 1.0;"/><polygon fill="#7A6563" points="279.2334,186.94,272.0237,187.0824,269.3822,193.7923,276.5919,193.6499,279.2334,186.94" style="stroke: #7A6563; stroke-width: 1.0;"/><text fill="#000000" font-family="Verdana" font-size="13" lengthAdjust="spacingAndGlyphs" textLength="30" x="241.4418" y="188.6184">axes</text><text fill="#000000" font-family="Verdana" font-size="13" lengthAdjust="spacingAndGlyphs" textLength="60" x="19.4079" y="390.2145">Dict[tag]</text><!--link Font to Feature--><path d="M276.6544,276.916 C267.6134,293.043 258.6674,309.324 250.3214,325 C233.1584,357.239 214.9324,394.824 202.5244,420.985 " fill="none" id="Font-Feature" style="stroke: #7A6563; stroke-width: 1.0;"/><polygon fill="#7A6563" points="283.2464,265.21,276.817,268.4754,277.3583,275.6661,283.7878,272.4008,283.2464,265.21" style="stroke: #7A6563; stroke-width: 1.0;"/><text fill="#000000" font-family="Verdana" font-size="13" lengthAdjust="spacingAndGlyphs" textLength="55" x="222.6368" y="285.7635">features</text><text fill="#000000" font-family="Verdana" font-size="13" lengthAdjust="spacingAndGlyphs" textLength="60" x="139.2876" y="410.199">Dict[tag]</text><!--link Font to Glyph--><path d="M358.3214,278.358 C358.3214,313.081 358.3214,348.922 358.3214,379.066 " fill="none" id="Font-Glyph" style="stroke: #7A6563; stroke-width: 1.0;"/><polygon fill="#7A6563" points="358.3214,265.118,354.3214,271.118,358.3214,277.118,362.3214,271.118,358.3214,265.118" style="stroke: #7A6563; stroke-width: 1.0;"/><text fill="#000000" font-family="Verdana" font-size="13" lengthAdjust="spacingAndGlyphs" textLength="42" x="315.173" y="285.6665">glyphs</text><text fill="#000000" font-family="Verdana" font-size="13" lengthAdjust="spacingAndGlyphs" textLength="23" x="334.1355" y="368.6461">List</text><!--link Font to Instance--><path d="M444.8964,264.745 C469.0174,300.197 494.5994,337.797 516.5304,370.03 " fill="none" id="Font-Instance" style="stroke: #7A6563; stroke-width: 1.0;"/><polygon fill="#7A6563" points="437.4634,253.821,437.5313,261.0318,444.2136,263.7425,444.1456,256.5317,437.4634,253.821" style="stroke: #7A6563; stroke-width: 1.0;"/><text fill="#000000" font-family="Verdana" font-size="13" lengthAdjust="spacingAndGlyphs" textLength="63" x="445.2429" y="259.6572">instances</text><text fill="#000000" font-family="Verdana" font-size="13" lengthAdjust="spacingAndGlyphs" textLength="23" x="487.2348" y="359.6435">List</text><!--link Font to Master--><path d="M449.1224,181.61 C516.1074,216.185 607.8184,267.879 680.3214,325 C686.2644,329.682 692.1964,334.645 698.0654,339.792 " fill="none" id="Font-Master" style="stroke: #7A6563; stroke-width: 1.0;"/><polygon fill="#7A6563" points="437.3334,175.57,440.85,181.8655,448.0138,181.0407,444.4972,174.7452,437.3334,175.57" style="stroke: #7A6563; stroke-width: 1.0;"/><text fill="#000000" font-family="Verdana" font-size="13" lengthAdjust="spacingAndGlyphs" textLength="52" x="445.3734" y="176.1055">masters</text><text fill="#000000" font-family="Verdana" font-size="13" lengthAdjust="spacingAndGlyphs" textLength="73" x="617.3131" y="331.196">Dict[name]</text><!--link Glyph to Layer--><path d="M358.3214,542.952 C358.3214,574.593 358.3214,610.688 358.3214,643.83 " fill="none" id="Glyph-Layer" style="stroke: #7A6563; stroke-width: 1.0;"/><polygon fill="#7A6563" points="358.3214,529.686,354.3214,535.686,358.3214,541.686,362.3214,535.686,358.3214,529.686" style="stroke: #7A6563; stroke-width: 1.0;"/><text fill="#000000" font-family="Verdana" font-size="13" lengthAdjust="spacingAndGlyphs" textLength="39" x="317.5847" y="550.1743">layers</text><text fill="#000000" font-family="Verdana" font-size="13" lengthAdjust="spacingAndGlyphs" textLength="23" x="334.4769" y="633.4191">List</text><!--link Layer to Anchor--><path d="M271.2484,834.677 C236.0844,867.663 197.0534,904.275 168.0624,931.469 " fill="none" id="Layer-Anchor" style="stroke: #7A6563; stroke-width: 1.0;"/><polygon fill="#7A6563" points="281.0524,825.481,273.9398,826.6687,272.3005,833.691,279.4131,832.5033,281.0524,825.481" style="stroke: #7A6563; stroke-width: 1.0;"/><text fill="#000000" font-family="Verdana" font-size="13" lengthAdjust="spacingAndGlyphs" textLength="52" x="221.4686" y="828.4101">anchors</text><text fill="#000000" font-family="Verdana" font-size="13" lengthAdjust="spacingAndGlyphs" textLength="73" x="173.2061" y="922.7283">Dict[name]</text><!--link Layer to Component--><path d="M313.6924,872.463 C305.4524,894.521 297.4094,916.05 290.9094,933.451 " fill="none" id="Layer-Component" style="stroke: #7A6563; stroke-width: 1.0;"/><polygon fill="#7A6563" points="318.2824,860.178,312.4359,864.3992,314.0838,871.4195,319.9303,867.1983,318.2824,860.178" style="stroke: #7A6563; stroke-width: 1.0;"/><text fill="#000000" font-family="Verdana" font-size="13" lengthAdjust="spacingAndGlyphs" textLength="80" x="232.6547" y="881.3946">components</text><text fill="#000000" font-family="Verdana" font-size="13" lengthAdjust="spacingAndGlyphs" textLength="23" x="268.4788" y="922.8179">List</text><!--link Layer to Guideline--><path d="M403.0884,872.834 C409.2544,889.34 415.3064,905.538 420.6784,919.92 " fill="none" id="Layer-Guideline" style="stroke: #7A6563; stroke-width: 1.0;"/><polygon fill="#7A6563" points="398.3604,860.178,396.7125,867.1983,402.559,871.4195,404.2069,864.3992,398.3604,860.178" style="stroke: #7A6563; stroke-width: 1.0;"/><text fill="#000000" font-family="Verdana" font-size="13" lengthAdjust="spacingAndGlyphs" textLength="64" x="334.9257" y="881.3946">guidelines</text><text fill="#000000" font-family="Verdana" font-size="13" lengthAdjust="spacingAndGlyphs" textLength="23" x="393.1043" y="909.0889">List</text><!--link Layer to Path--><path d="M444.5934,838.301 C476.1434,869.495 510.5004,903.465 536.7544,929.423 " fill="none" id="Layer-Path" style="stroke: #7A6563; stroke-width: 1.0;"/><polygon fill="#7A6563" points="435.3434,829.154,436.7977,836.2169,443.8767,837.591,442.4224,830.5281,435.3434,829.154" style="stroke: #7A6563; stroke-width: 1.0;"/><text fill="#000000" font-family="Verdana" font-size="13" lengthAdjust="spacingAndGlyphs" textLength="37" x="443.2538" y="833.0076">paths</text><text fill="#000000" font-family="Verdana" font-size="13" lengthAdjust="spacingAndGlyphs" textLength="23" x="504.2898" y="918.6876">List</text><!--link Path to Point--><path d="M580.3214,1031.034 C580.3214,1048.942 580.3214,1068.781 580.3214,1086.867 " fill="none" id="Path-Point" style="stroke: #7A6563; stroke-width: 1.0;"/><polygon fill="#7A6563" points="580.3214,1017.777,576.3214,1023.777,580.3214,1029.777,584.3214,1023.777,580.3214,1017.777" style="stroke: #7A6563; stroke-width: 1.0;"/><text fill="#000000" font-family="Verdana" font-size="13" lengthAdjust="spacingAndGlyphs" textLength="40" x="537.2589" y="1038.8283">points</text><text fill="#000000" font-family="Verdana" font-size="13" lengthAdjust="spacingAndGlyphs" textLength="23" x="555.848" y="1076.309">List</text><!--
@startuml

skinparam defaultFontName Verdana
skinparam circledCharacterFontName "Lucida Console"
skinparam stereotypeCBackgroundColor #BFEDC1
skinparam class {
  ArrowColor #7A6563
  BackgroundColor #F7F7F7
  BorderColor #01172F
}

class Anchor {
  + x: Number
  + y: Number
  + name: str
  - selected
}

class Axis {
  + tag: str[4]
  + min: int
  + max: int
  + default: int
  + name: str?
}

class Component {
  + glyphName: str
  ~ transformation: tuple
  - selected
}

class Feature {
  + tag: str[4]
  + content: str
}

class Font {
  + date: datetime
  + familyName: str
  - - -
  + copyright: str
  + designer: str
  + designerURL: str
  + manufacturer: str
  + manufacturerURL: str
  + unitsPerEm: int
  + versionMajor: int
  + versionMinor: int
  - - -
  + extraData: dict
  - cmap: dict
  - layoutEngine
  - modified: bool
  - selectedMaster: Master
}

class Glyph {
  + name: str
  + unicodes: List[str]
  - - -
  + {l,r,b,t}KerningGroup: str?
  - - -
  + color: tuple
  ~ extraData: dict
  - lastModified: float?
  - selected
}

class Guideline {
  + x: Number
  + y: Number
  + angle: Number
  + name: str?
  - selected
}

class Instance {
  + familyName: str
  + styleName: str
  + location: Dict[str, int]
  - - -
  + bold: bool
  + italic: bool
  + preferredFamilyName: str?
  + preferredSubfamilyName
  + postscriptFontName
  + postscriptFullName
}

class Layer {
  + masterName: str
  ~ name: str
  + location: Dict[str, int]?
  - - -
  + width: Number
  + height: Number
  + yOrigin: Number?
  - - -
  + color: tuple
  ~ extraData: dict
  - bounds
  - graphicsPath
  - selection
  - visible
}

class Master {
  + name: str
  + location: Dict[str, int]
  - - -
  + alignmentZones
  + hStems: List[int]
  + vStems
  - - -
  + guidelines
  + hKerning: Dict[str, Dict[str, int]]
  + vKerning
  - - -
  + ascender: int
  + capHeight: int
  + descender: int
  + italicAngle: float
  + xHeight: int
  - - -
  - visible
}

class Path {
  + id
  - - -
  - bounds
  - graphicsPath
}

class Point {
  + x: Number
  + y: Number
  + type: str
  + smooth: bool
  ~ extraData: dict
  - selected
}

Font "axes" *- - "Dict[tag]" Axis
Font "features" *- - "Dict[tag]" Feature
Font "glyphs" *- - "List" Glyph
Font "instances" *- - "List" Instance
Font "masters" *- - "Dict[name]" Master
Glyph "layers" *- - "List" Layer
Layer "anchors" *- - "Dict[name]" Anchor
Layer "components" *- - "List" Component
Layer "guidelines" *- - "List" Guideline
Layer "paths" *- - "List" Path
Path "points" *- - "List" Point

hide empty members
hide empty methods

@enduml

PlantUML version 1.2018.01(Sun Jan 28 19:08:22 CET 2018)
(GPL source distribution)
Java Runtime: Java(TM) SE Runtime Environment
JVM: Java HotSpot(TM) 64-Bit Server VM
Java Version: 1.8.0_131-b11
Operating System: Windows 10
OS Version: 10.0
Default Encoding: Cp1252
Language: fr
Country: FR
--></g></svg>