<?xml version="1.0" encoding="UTF-8" standalone="no"?><svg xmlns="http://www.w3.org/2000/svg" xmlns:xlink="http://www.w3.org/1999/xlink" contentScriptType="application/ecmascript" contentStyleType="text/css" height="1210px" preserveAspectRatio="none" style="width:952px;height:1210px;" version="1.1" viewBox="0 0 952 1210" width="952px" zoomAndPan="magnify"><defs><filter height="300%" id="fp7ixlzv0zskd" width="300%" x="-1" y="-1"><feGaussianBlur result="blurOut" stdDeviation="2.0"/><feColorMatrix in="blurOut" result="blurOut2" type="matrix" values="0 0 0 0 0 0 0 0 0 0 0 0 0 0 0 0 0 0 .4 0"/><feOffset dx="4.0" dy="4.0" in="blurOut2" result="blurOut3"/><feBlend in="SourceGraphic" in2="blurOut3" mode="normal"/></filter></defs><g><!--class Anchor--><rect fill="#F7F7F7" filter="url(#fp7ixlzv0zskd)" height="93.4746" id="Anchor" style="stroke: #01172F; stroke-width: 1.5;" width="87" x="113.6852" y="919"/><ellipse cx="134.0852" cy="935" fill="#BFEDC1" rx="11" ry="11" style="stroke: #01172F; stroke-width: 1.0;"/><path d="M138.3508,940.1719 Q136.7727,940.75 134.3196,940.75 Q131.7883,940.75 130.2336,939.2266 Q128.679,937.7031 128.679,935.2344 Q128.679,932.7188 130.2258,931.1563 Q131.7727,929.5938 134.2571,929.5938 Q136.679,929.5938 138.1946,930.0781 L138.1946,931.9531 Q135.6321,930.8281 134.2102,930.8281 Q133.554,930.8281 132.4915,932.0391 Q131.429,933.25 131.429,935.125 Q131.429,937.0156 132.6321,938.2188 Q133.8352,939.4219 134.7258,939.4219 Q135.8665,939.4219 138.3508,938.5156 L138.3508,940.1719 Z "/><text fill="#000000" font-family="Verdana" font-size="12" lengthAdjust="spacingAndGlyphs" textLength="43" x="149.2852" y="939.7725">Anchor</text><line style="stroke: #01172F; stroke-width: 1.5;" x1="114.6852" x2="199.6852" y1="951" y2="951"/><ellipse cx="124.6852" cy="963.1843" fill="none" rx="3" ry="3" style="stroke: #038048; stroke-width: 1.0;"/><text fill="#000000" font-family="Verdana" font-size="11" lengthAdjust="spacingAndGlyphs" textLength="56" x="133.6852" y="966.0591">name: str</text><ellipse cx="124.6852" cy="976.553" fill="none" rx="3" ry="3" style="stroke: #038048; stroke-width: 1.0;"/><text fill="#000000" font-family="Verdana" font-size="11" lengthAdjust="spacingAndGlyphs" textLength="61" x="133.6852" y="979.4277">x: Number</text><ellipse cx="124.6852" cy="989.9216" fill="none" rx="3" ry="3" style="stroke: #038048; stroke-width: 1.0;"/><text fill="#000000" font-family="Verdana" font-size="11" lengthAdjust="spacingAndGlyphs" textLength="61" x="133.6852" y="992.7964">y: Number</text><rect fill="none" height="6" style="stroke: #C82930; stroke-width: 1.0;" width="6" x="121.6852" y="1000.2903"/><text fill="#000000" font-family="Verdana" font-size="11" lengthAdjust="spacingAndGlyphs" textLength="47" x="133.6852" y="1006.165">selected</text><!--class Axis--><rect fill="#F7F7F7" filter="url(#fp7ixlzv0zskd)" height="106.8433" id="Axis" style="stroke: #01172F; stroke-width: 1.5;" width="106" x="33.1852" y="397"/><ellipse cx="70.2352" cy="413" fill="#BFEDC1" rx="11" ry="11" style="stroke: #01172F; stroke-width: 1.0;"/><path d="M74.5008,418.1719 Q72.9227,418.75 70.4696,418.75 Q67.9383,418.75 66.3836,417.2266 Q64.829,415.7031 64.829,413.2344 Q64.829,410.7188 66.3758,409.1563 Q67.9227,407.5938 70.4071,407.5938 Q72.829,407.5938 74.3446,408.0781 L74.3446,409.9531 Q71.7821,408.8281 70.3602,408.8281 Q69.704,408.8281 68.6415,410.0391 Q67.579,411.25 67.579,413.125 Q67.579,415.0156 68.7821,416.2188 Q69.9852,417.4219 70.8758,417.4219 Q72.0165,417.4219 74.5008,416.5156 L74.5008,418.1719 Z "/><text fill="#000000" font-family="Verdana" font-size="12" lengthAdjust="spacingAndGlyphs" textLength="25" x="89.1352" y="417.7725">Axis</text><line style="stroke: #01172F; stroke-width: 1.5;" x1="34.1852" x2="138.1852" y1="429" y2="429"/><ellipse cx="44.1852" cy="441.1843" fill="none" rx="3" ry="3" style="stroke: #038048; stroke-width: 1.0;"/><text fill="#000000" font-family="Verdana" font-size="11" lengthAdjust="spacingAndGlyphs" textLength="59" x="53.1852" y="444.0591">tag: str[4]</text><ellipse cx="44.1852" cy="454.553" fill="none" rx="3" ry="3" style="stroke: #038048; stroke-width: 1.0;"/><text fill="#000000" font-family="Verdana" font-size="11" lengthAdjust="spacingAndGlyphs" textLength="76" x="53.1852" y="457.4277">minimum: int</text><ellipse cx="44.1852" cy="467.9216" fill="none" rx="3" ry="3" style="stroke: #038048; stroke-width: 1.0;"/><text fill="#000000" font-family="Verdana" font-size="11" lengthAdjust="spacingAndGlyphs" textLength="80" x="53.1852" y="470.7964">maximum: int</text><ellipse cx="44.1852" cy="481.2903" fill="none" rx="3" ry="3" style="stroke: #038048; stroke-width: 1.0;"/><text fill="#000000" font-family="Verdana" font-size="11" lengthAdjust="spacingAndGlyphs" textLength="62" x="53.1852" y="484.165">default: int</text><ellipse cx="44.1852" cy="494.6589" fill="none" rx="3" ry="3" style="stroke: #038048; stroke-width: 1.0;"/><text fill="#000000" font-family="Verdana" font-size="11" lengthAdjust="spacingAndGlyphs" textLength="62" x="53.1852" y="497.5337">name: str?</text><!--class Component--><rect fill="#F7F7F7" filter="url(#fp7ixlzv0zskd)" height="80.106" id="Component" style="stroke: #01172F; stroke-width: 1.5;" width="147" x="235.685" y="925.5"/><ellipse cx="269.585" cy="941.5" fill="#BFEDC1" rx="11" ry="11" style="stroke: #01172F; stroke-width: 1.0;"/><path d="M273.8506,946.6719 Q272.2725,947.25 269.8194,947.25 Q267.2881,947.25 265.7334,945.7266 Q264.1788,944.2031 264.1788,941.7344 Q264.1788,939.2188 265.7256,937.6563 Q267.2725,936.0938 269.7569,936.0938 Q272.1788,936.0938 273.6944,936.5781 L273.6944,938.4531 Q271.1319,937.3281 269.71,937.3281 Q269.0538,937.3281 267.9913,938.5391 Q266.9288,939.75 266.9288,941.625 Q266.9288,943.5156 268.1319,944.7188 Q269.335,945.9219 270.2256,945.9219 Q271.3663,945.9219 273.8506,945.0156 L273.8506,946.6719 Z "/><text fill="#000000" font-family="Verdana" font-size="12" lengthAdjust="spacingAndGlyphs" textLength="73" x="287.785" y="946.2725">Component</text><line style="stroke: #01172F; stroke-width: 1.5;" x1="236.685" x2="381.685" y1="957.5" y2="957.5"/><ellipse cx="246.685" cy="969.6843" fill="none" rx="3" ry="3" style="stroke: #038048; stroke-width: 1.0;"/><text fill="#000000" font-family="Verdana" font-size="11" lengthAdjust="spacingAndGlyphs" textLength="88" x="255.685" y="972.5591">glyphName: str</text><polygon fill="none" points="246.685,979.053,242.685,985.053,250.685,985.053" style="stroke: #1963A0; stroke-width: 1.0;"/><text fill="#000000" font-family="Verdana" font-size="11" lengthAdjust="spacingAndGlyphs" textLength="121" x="255.685" y="985.9277">transformation: tuple</text><rect fill="none" height="6" style="stroke: #C82930; stroke-width: 1.0;" width="6" x="243.685" y="993.4216"/><text fill="#000000" font-family="Verdana" font-size="11" lengthAdjust="spacingAndGlyphs" textLength="47" x="255.685" y="999.2964">selected</text><!--class Feature--><rect fill="#F7F7F7" filter="url(#fp7ixlzv0zskd)" height="66.7373" id="Feature" style="stroke: #01172F; stroke-width: 1.5;" width="92" x="174.185" y="417"/><ellipse cx="194.135" cy="433" fill="#BFEDC1" rx="11" ry="11" style="stroke: #01172F; stroke-width: 1.0;"/><path d="M198.4006,438.1719 Q196.8225,438.75 194.3694,438.75 Q191.8381,438.75 190.2834,437.2266 Q188.7288,435.7031 188.7288,433.2344 Q188.7288,430.7188 190.2756,429.1563 Q191.8225,427.5938 194.3069,427.5938 Q196.7288,427.5938 198.2444,428.0781 L198.2444,429.9531 Q195.6819,428.8281 194.26,428.8281 Q193.6038,428.8281 192.5413,430.0391 Q191.4788,431.25 191.4788,433.125 Q191.4788,435.0156 192.6819,436.2188 Q193.885,437.4219 194.7756,437.4219 Q195.9163,437.4219 198.4006,436.5156 L198.4006,438.1719 Z "/><text fill="#000000" font-family="Verdana" font-size="12" lengthAdjust="spacingAndGlyphs" textLength="49" x="209.235" y="437.7725">Feature</text><line style="stroke: #01172F; stroke-width: 1.5;" x1="175.185" x2="265.185" y1="449" y2="449"/><ellipse cx="185.185" cy="461.1843" fill="none" rx="3" ry="3" style="stroke: #038048; stroke-width: 1.0;"/><text fill="#000000" font-family="Verdana" font-size="11" lengthAdjust="spacingAndGlyphs" textLength="59" x="194.185" y="464.0591">tag: str[4]</text><ellipse cx="185.185" cy="474.553" fill="none" rx="3" ry="3" style="stroke: #038048; stroke-width: 1.0;"/><text fill="#000000" font-family="Verdana" font-size="11" lengthAdjust="spacingAndGlyphs" textLength="66" x="194.185" y="477.4277">content: str</text><!--class Font--><rect fill="#F7F7F7" filter="url(#fp7ixlzv0zskd)" height="256.5298" id="Font" style="stroke: #01172F; stroke-width: 1.5;" width="158" x="312.185" y="8"/><ellipse cx="372.935" cy="24" fill="#BFEDC1" rx="11" ry="11" style="stroke: #01172F; stroke-width: 1.0;"/><path d="M377.2006,29.1719 Q375.6225,29.75 373.1694,29.75 Q370.6381,29.75 369.0834,28.2266 Q367.5288,26.7031 367.5288,24.2344 Q367.5288,21.7188 369.0756,20.1563 Q370.6225,18.5938 373.1069,18.5938 Q375.5288,18.5938 377.0444,19.0781 L377.0444,20.9531 Q374.4819,19.8281 373.06,19.8281 Q372.4038,19.8281 371.3413,21.0391 Q370.2788,22.25 370.2788,24.125 Q370.2788,26.0156 371.4819,27.2188 Q372.685,28.4219 373.5756,28.4219 Q374.7163,28.4219 377.2006,27.5156 L377.2006,29.1719 Z "/><text fill="#000000" font-family="Verdana" font-size="12" lengthAdjust="spacingAndGlyphs" textLength="28" x="393.435" y="28.7725">Font</text><line style="stroke: #01172F; stroke-width: 1.5;" x1="313.185" x2="469.185" y1="40" y2="40"/><ellipse cx="323.185" cy="52.1843" fill="none" rx="3" ry="3" style="stroke: #038048; stroke-width: 1.0;"/><text fill="#000000" font-family="Verdana" font-size="11" lengthAdjust="spacingAndGlyphs" textLength="84" x="332.185" y="55.0591">date: datetime</text><ellipse cx="323.185" cy="65.553" fill="none" rx="3" ry="3" style="stroke: #038048; stroke-width: 1.0;"/><text fill="#000000" font-family="Verdana" font-size="11" lengthAdjust="spacingAndGlyphs" textLength="92" x="332.185" y="68.4277">familyName: str</text><line style="stroke: #01172F; stroke-width: 1.0;" x1="313.185" x2="469.185" y1="74.7373" y2="74.7373"/><ellipse cx="323.185" cy="86.9216" fill="none" rx="3" ry="3" style="stroke: #038048; stroke-width: 1.0;"/><text fill="#000000" font-family="Verdana" font-size="11" lengthAdjust="spacingAndGlyphs" textLength="77" x="332.185" y="89.7964">copyright: str</text><ellipse cx="323.185" cy="100.2903" fill="none" rx="3" ry="3" style="stroke: #038048; stroke-width: 1.0;"/><text fill="#000000" font-family="Verdana" font-size="11" lengthAdjust="spacingAndGlyphs" textLength="73" x="332.185" y="103.165">designer: str</text><ellipse cx="323.185" cy="113.6589" fill="none" rx="3" ry="3" style="stroke: #038048; stroke-width: 1.0;"/><text fill="#000000" font-family="Verdana" font-size="11" lengthAdjust="spacingAndGlyphs" textLength="95" x="332.185" y="116.5337">designerURL: str</text><ellipse cx="323.185" cy="127.0276" fill="none" rx="3" ry="3" style="stroke: #038048; stroke-width: 1.0;"/><text fill="#000000" font-family="Verdana" font-size="11" lengthAdjust="spacingAndGlyphs" textLength="101" x="332.185" y="129.9023">manufacturer: str</text><ellipse cx="323.185" cy="140.3962" fill="none" rx="3" ry="3" style="stroke: #038048; stroke-width: 1.0;"/><text fill="#000000" font-family="Verdana" font-size="11" lengthAdjust="spacingAndGlyphs" textLength="123" x="332.185" y="143.271">manufacturerURL: str</text><ellipse cx="323.185" cy="153.7649" fill="none" rx="3" ry="3" style="stroke: #038048; stroke-width: 1.0;"/><text fill="#000000" font-family="Verdana" font-size="11" lengthAdjust="spacingAndGlyphs" textLength="87" x="332.185" y="156.6396">unitsPerEm: int</text><ellipse cx="323.185" cy="167.1335" fill="none" rx="3" ry="3" style="stroke: #038048; stroke-width: 1.0;"/><text fill="#000000" font-family="Verdana" font-size="11" lengthAdjust="spacingAndGlyphs" textLength="97" x="332.185" y="170.0083">versionMajor: int</text><ellipse cx="323.185" cy="180.5022" fill="none" rx="3" ry="3" style="stroke: #038048; stroke-width: 1.0;"/><text fill="#000000" font-family="Verdana" font-size="11" lengthAdjust="spacingAndGlyphs" textLength="96" x="332.185" y="183.377">versionMinor: int</text><line style="stroke: #01172F; stroke-width: 1.0;" x1="313.185" x2="469.185" y1="189.6865" y2="189.6865"/><ellipse cx="323.185" cy="201.8708" fill="none" rx="3" ry="3" style="stroke: #038048; stroke-width: 1.0;"/><text fill="#000000" font-family="Verdana" font-size="11" lengthAdjust="spacingAndGlyphs" textLength="86" x="332.185" y="204.7456">extraData: dict</text><rect fill="none" height="6" style="stroke: #C82930; stroke-width: 1.0;" width="6" x="320.185" y="212.2395"/><text fill="#000000" font-family="Verdana" font-size="11" lengthAdjust="spacingAndGlyphs" textLength="60" x="332.185" y="218.1143">cmap: dict</text><rect fill="none" height="6" style="stroke: #C82930; stroke-width: 1.0;" width="6" x="320.185" y="225.6082"/><text fill="#000000" font-family="Verdana" font-size="11" lengthAdjust="spacingAndGlyphs" textLength="73" x="332.185" y="231.4829">layoutEngine</text><rect fill="none" height="6" style="stroke: #C82930; stroke-width: 1.0;" width="6" x="320.185" y="238.9768"/><text fill="#000000" font-family="Verdana" font-size="11" lengthAdjust="spacingAndGlyphs" textLength="82" x="332.185" y="244.8516">modified: bool</text><rect fill="none" height="6" style="stroke: #C82930; stroke-width: 1.0;" width="6" x="320.185" y="252.3455"/><text fill="#000000" font-family="Verdana" font-size="11" lengthAdjust="spacingAndGlyphs" textLength="132" x="332.185" y="258.2202">selectedMaster: Master</text><!--class Glyph--><rect fill="#F7F7F7" filter="url(#fp7ixlzv0zskd)" height="149.5806" id="Glyph" style="stroke: #01172F; stroke-width: 1.5;" width="180" x="301.185" y="375.5"/><ellipse cx="369.435" cy="391.5" fill="#BFEDC1" rx="11" ry="11" style="stroke: #01172F; stroke-width: 1.0;"/><path d="M373.7006,396.6719 Q372.1225,397.25 369.6694,397.25 Q367.1381,397.25 365.5834,395.7266 Q364.0288,394.2031 364.0288,391.7344 Q364.0288,389.2188 365.5756,387.6563 Q367.1225,386.0938 369.6069,386.0938 Q372.0288,386.0938 373.5444,386.5781 L373.5444,388.4531 Q370.9819,387.3281 369.56,387.3281 Q368.9038,387.3281 367.8413,388.5391 Q366.7788,389.75 366.7788,391.625 Q366.7788,393.5156 367.9819,394.7188 Q369.185,395.9219 370.0756,395.9219 Q371.2163,395.9219 373.7006,395.0156 L373.7006,396.6719 Z "/><text fill="#000000" font-family="Verdana" font-size="12" lengthAdjust="spacingAndGlyphs" textLength="35" x="389.935" y="396.2725">Glyph</text><line style="stroke: #01172F; stroke-width: 1.5;" x1="302.185" x2="480.185" y1="407.5" y2="407.5"/><ellipse cx="312.185" cy="419.6843" fill="none" rx="3" ry="3" style="stroke: #038048; stroke-width: 1.0;"/><text fill="#000000" font-family="Verdana" font-size="11" lengthAdjust="spacingAndGlyphs" textLength="56" x="321.185" y="422.5591">name: str</text><ellipse cx="312.185" cy="433.053" fill="none" rx="3" ry="3" style="stroke: #038048; stroke-width: 1.0;"/><text fill="#000000" font-family="Verdana" font-size="11" lengthAdjust="spacingAndGlyphs" textLength="103" x="321.185" y="435.9277">unicodes: List[str]</text><line style="stroke: #01172F; stroke-width: 1.0;" x1="302.185" x2="480.185" y1="442.2373" y2="442.2373"/><ellipse cx="312.185" cy="454.4216" fill="none" rx="3" ry="3" style="stroke: #038048; stroke-width: 1.0;"/><text fill="#000000" font-family="Verdana" font-size="11" lengthAdjust="spacingAndGlyphs" textLength="154" x="321.185" y="457.2964">{l,r,b,t}KerningGroup: str?</text><line style="stroke: #01172F; stroke-width: 1.0;" x1="302.185" x2="480.185" y1="463.606" y2="463.606"/><ellipse cx="312.185" cy="475.7903" fill="none" rx="3" ry="3" style="stroke: #038048; stroke-width: 1.0;"/><text fill="#000000" font-family="Verdana" font-size="11" lengthAdjust="spacingAndGlyphs" textLength="65" x="321.185" y="478.665">color: tuple</text><polygon fill="none" points="312.185,485.1589,308.185,491.1589,316.185,491.1589" style="stroke: #1963A0; stroke-width: 1.0;"/><text fill="#000000" font-family="Verdana" font-size="11" lengthAdjust="spacingAndGlyphs" textLength="86" x="321.185" y="492.0337">extraData: dict</text><rect fill="none" height="6" style="stroke: #C82930; stroke-width: 1.0;" width="6" x="309.185" y="499.5276"/><text fill="#000000" font-family="Verdana" font-size="11" lengthAdjust="spacingAndGlyphs" textLength="107" x="321.185" y="505.4023">lastModified: float?</text><rect fill="none" height="6" style="stroke: #C82930; stroke-width: 1.0;" width="6" x="309.185" y="512.8962"/><text fill="#000000" font-family="Verdana" font-size="11" lengthAdjust="spacingAndGlyphs" textLength="47" x="321.185" y="518.771">selected</text><!--class Guideline--><rect fill="#F7F7F7" filter="url(#fp7ixlzv0zskd)" height="106.8433" id="Guideline" style="stroke: #01172F; stroke-width: 1.5;" width="111" x="417.685" y="912"/><ellipse cx="442.135" cy="928" fill="#BFEDC1" rx="11" ry="11" style="stroke: #01172F; stroke-width: 1.0;"/><path d="M446.4006,933.1719 Q444.8225,933.75 442.3694,933.75 Q439.8381,933.75 438.2834,932.2266 Q436.7288,930.7031 436.7288,928.2344 Q436.7288,925.7188 438.2756,924.1563 Q439.8225,922.5938 442.3069,922.5938 Q444.7288,922.5938 446.2444,923.0781 L446.2444,924.9531 Q443.6819,923.8281 442.26,923.8281 Q441.6038,923.8281 440.5413,925.0391 Q439.4788,926.25 439.4788,928.125 Q439.4788,930.0156 440.6819,931.2188 Q441.885,932.4219 442.7756,932.4219 Q443.9163,932.4219 446.4006,931.5156 L446.4006,933.1719 Z "/><text fill="#000000" font-family="Verdana" font-size="12" lengthAdjust="spacingAndGlyphs" textLength="58" x="458.235" y="932.7725">Guideline</text><line style="stroke: #01172F; stroke-width: 1.5;" x1="418.685" x2="527.685" y1="944" y2="944"/><ellipse cx="428.685" cy="956.1843" fill="none" rx="3" ry="3" style="stroke: #038048; stroke-width: 1.0;"/><text fill="#000000" font-family="Verdana" font-size="11" lengthAdjust="spacingAndGlyphs" textLength="61" x="437.685" y="959.0591">x: Number</text><ellipse cx="428.685" cy="969.553" fill="none" rx="3" ry="3" style="stroke: #038048; stroke-width: 1.0;"/><text fill="#000000" font-family="Verdana" font-size="11" lengthAdjust="spacingAndGlyphs" textLength="61" x="437.685" y="972.4277">y: Number</text><ellipse cx="428.685" cy="982.9216" fill="none" rx="3" ry="3" style="stroke: #038048; stroke-width: 1.0;"/><text fill="#000000" font-family="Verdana" font-size="11" lengthAdjust="spacingAndGlyphs" textLength="85" x="437.685" y="985.7964">angle: Number</text><ellipse cx="428.685" cy="996.2903" fill="none" rx="3" ry="3" style="stroke: #038048; stroke-width: 1.0;"/><text fill="#000000" font-family="Verdana" font-size="11" lengthAdjust="spacingAndGlyphs" textLength="62" x="437.685" y="999.165">name: str?</text><rect fill="none" height="6" style="stroke: #C82930; stroke-width: 1.0;" width="6" x="425.685" y="1006.6589"/><text fill="#000000" font-family="Verdana" font-size="11" lengthAdjust="spacingAndGlyphs" textLength="47" x="437.685" y="1012.5337">selected</text><!--class Instance--><rect fill="#F7F7F7" filter="url(#fp7ixlzv0zskd)" height="168.3179" id="Instance" style="stroke: #01172F; stroke-width: 1.5;" width="180" x="516.185" y="366.5"/><ellipse cx="574.435" cy="382.5" fill="#BFEDC1" rx="11" ry="11" style="stroke: #01172F; stroke-width: 1.0;"/><path d="M578.7006,387.6719 Q577.1225,388.25 574.6694,388.25 Q572.1381,388.25 570.5834,386.7266 Q569.0288,385.2031 569.0288,382.7344 Q569.0288,380.2188 570.5756,378.6563 Q572.1225,377.0938 574.6069,377.0938 Q577.0288,377.0938 578.5444,377.5781 L578.5444,379.4531 Q575.9819,378.3281 574.56,378.3281 Q573.9038,378.3281 572.8413,379.5391 Q571.7788,380.75 571.7788,382.625 Q571.7788,384.5156 572.9819,385.7188 Q574.185,386.9219 575.0756,386.9219 Q576.2163,386.9219 578.7006,386.0156 L578.7006,387.6719 Z "/><text fill="#000000" font-family="Verdana" font-size="12" lengthAdjust="spacingAndGlyphs" textLength="55" x="594.935" y="387.2725">Instance</text><line style="stroke: #01172F; stroke-width: 1.5;" x1="517.185" x2="695.185" y1="398.5" y2="398.5"/><ellipse cx="527.185" cy="410.6843" fill="none" rx="3" ry="3" style="stroke: #038048; stroke-width: 1.0;"/><text fill="#000000" font-family="Verdana" font-size="11" lengthAdjust="spacingAndGlyphs" textLength="92" x="536.185" y="413.5591">familyName: str</text><ellipse cx="527.185" cy="424.053" fill="none" rx="3" ry="3" style="stroke: #038048; stroke-width: 1.0;"/><text fill="#000000" font-family="Verdana" font-size="11" lengthAdjust="spacingAndGlyphs" textLength="84" x="536.185" y="426.9277">styleName: str</text><ellipse cx="527.185" cy="437.4216" fill="none" rx="3" ry="3" style="stroke: #038048; stroke-width: 1.0;"/><text fill="#000000" font-family="Verdana" font-size="11" lengthAdjust="spacingAndGlyphs" textLength="122" x="536.185" y="440.2964">location: Dict[str, int]</text><line style="stroke: #01172F; stroke-width: 1.0;" x1="517.185" x2="695.185" y1="446.606" y2="446.606"/><ellipse cx="527.185" cy="458.7903" fill="none" rx="3" ry="3" style="stroke: #038048; stroke-width: 1.0;"/><text fill="#000000" font-family="Verdana" font-size="11" lengthAdjust="spacingAndGlyphs" textLength="57" x="536.185" y="461.665">bold: bool</text><ellipse cx="527.185" cy="472.1589" fill="none" rx="3" ry="3" style="stroke: #038048; stroke-width: 1.0;"/><text fill="#000000" font-family="Verdana" font-size="11" lengthAdjust="spacingAndGlyphs" textLength="59" x="536.185" y="475.0337">italic: bool</text><ellipse cx="527.185" cy="485.5276" fill="none" rx="3" ry="3" style="stroke: #038048; stroke-width: 1.0;"/><text fill="#000000" font-family="Verdana" font-size="11" lengthAdjust="spacingAndGlyphs" textLength="154" x="536.185" y="488.4023">preferredFamilyName: str?</text><ellipse cx="527.185" cy="498.8962" fill="none" rx="3" ry="3" style="stroke: #038048; stroke-width: 1.0;"/><text fill="#000000" font-family="Verdana" font-size="11" lengthAdjust="spacingAndGlyphs" textLength="144" x="536.185" y="501.771">preferredSubfamilyName</text><ellipse cx="527.185" cy="512.2649" fill="none" rx="3" ry="3" style="stroke: #038048; stroke-width: 1.0;"/><text fill="#000000" font-family="Verdana" font-size="11" lengthAdjust="spacingAndGlyphs" textLength="112" x="536.185" y="515.1396">postscriptFontName</text><ellipse cx="527.185" cy="525.6335" fill="none" rx="3" ry="3" style="stroke: #038048; stroke-width: 1.0;"/><text fill="#000000" font-family="Verdana" font-size="11" lengthAdjust="spacingAndGlyphs" textLength="107" x="536.185" y="528.5083">postscriptFullName</text><!--class Layer--><rect fill="#F7F7F7" filter="url(#fp7ixlzv0zskd)" height="216.4238" id="Layer" style="stroke: #01172F; stroke-width: 1.5;" width="131" x="325.685" y="636"/><ellipse cx="369.485" cy="652" fill="#BFEDC1" rx="11" ry="11" style="stroke: #01172F; stroke-width: 1.0;"/><path d="M373.7506,657.1719 Q372.1725,657.75 369.7194,657.75 Q367.1881,657.75 365.6334,656.2266 Q364.0788,654.7031 364.0788,652.2344 Q364.0788,649.7188 365.6256,648.1563 Q367.1725,646.5938 369.6569,646.5938 Q372.0788,646.5938 373.5944,647.0781 L373.5944,648.9531 Q371.0319,647.8281 369.61,647.8281 Q368.9538,647.8281 367.8913,649.0391 Q366.8288,650.25 366.8288,652.125 Q366.8288,654.0156 368.0319,655.2188 Q369.235,656.4219 370.1256,656.4219 Q371.2663,656.4219 373.7506,655.5156 L373.7506,657.1719 Z "/><text fill="#000000" font-family="Verdana" font-size="12" lengthAdjust="spacingAndGlyphs" textLength="35" x="389.885" y="656.7725">Layer</text><line style="stroke: #01172F; stroke-width: 1.5;" x1="326.685" x2="455.685" y1="668" y2="668"/><ellipse cx="336.685" cy="680.1843" fill="none" rx="3" ry="3" style="stroke: #038048; stroke-width: 1.0;"/><text fill="#000000" font-family="Verdana" font-size="11" lengthAdjust="spacingAndGlyphs" textLength="85" x="345.685" y="683.0591">masterId: uuid</text><ellipse cx="336.685" cy="693.553" fill="none" rx="3" ry="3" style="stroke: #038048; stroke-width: 1.0;"/><text fill="#000000" font-family="Verdana" font-size="11" lengthAdjust="spacingAndGlyphs" textLength="105" x="345.685" y="696.4277">masterLayer: bool</text><polygon fill="none" points="336.685,702.9216,332.685,708.9216,340.685,708.9216" style="stroke: #1963A0; stroke-width: 1.0;"/><text fill="#000000" font-family="Verdana" font-size="11" lengthAdjust="spacingAndGlyphs" textLength="56" x="345.685" y="709.7964">name: str</text><line style="stroke: #01172F; stroke-width: 1.0;" x1="326.685" x2="455.685" y1="716.106" y2="716.106"/><ellipse cx="336.685" cy="728.2903" fill="none" rx="3" ry="3" style="stroke: #038048; stroke-width: 1.0;"/><text fill="#000000" font-family="Verdana" font-size="11" lengthAdjust="spacingAndGlyphs" textLength="84" x="345.685" y="731.165">width: Number</text><ellipse cx="336.685" cy="741.6589" fill="none" rx="3" ry="3" style="stroke: #038048; stroke-width: 1.0;"/><text fill="#000000" font-family="Verdana" font-size="11" lengthAdjust="spacingAndGlyphs" textLength="89" x="345.685" y="744.5337">height: Number</text><ellipse cx="336.685" cy="755.0276" fill="none" rx="3" ry="3" style="stroke: #038048; stroke-width: 1.0;"/><text fill="#000000" font-family="Verdana" font-size="11" lengthAdjust="spacingAndGlyphs" textLength="101" x="345.685" y="757.9023">yOrigin: Number?</text><line style="stroke: #01172F; stroke-width: 1.0;" x1="326.685" x2="455.685" y1="764.2119" y2="764.2119"/><ellipse cx="336.685" cy="776.3962" fill="none" rx="3" ry="3" style="stroke: #038048; stroke-width: 1.0;"/><text fill="#000000" font-family="Verdana" font-size="11" lengthAdjust="spacingAndGlyphs" textLength="65" x="345.685" y="779.271">color: tuple</text><polygon fill="none" points="336.685,785.7649,332.685,791.7649,340.685,791.7649" style="stroke: #1963A0; stroke-width: 1.0;"/><text fill="#000000" font-family="Verdana" font-size="11" lengthAdjust="spacingAndGlyphs" textLength="86" x="345.685" y="792.6396">extraData: dict</text><polygon fill="none" points="336.685,799.1335,332.685,805.1335,340.685,805.1335" style="stroke: #1963A0; stroke-width: 1.0;"/><text fill="#000000" font-family="Verdana" font-size="11" lengthAdjust="spacingAndGlyphs" textLength="69" x="345.685" y="806.0083">visible: bool</text><rect fill="none" height="6" style="stroke: #C82930; stroke-width: 1.0;" width="6" x="333.685" y="813.5022"/><text fill="#000000" font-family="Verdana" font-size="11" lengthAdjust="spacingAndGlyphs" textLength="41" x="345.685" y="819.377">bounds</text><rect fill="none" height="6" style="stroke: #C82930; stroke-width: 1.0;" width="6" x="333.685" y="826.8708"/><text fill="#000000" font-family="Verdana" font-size="11" lengthAdjust="spacingAndGlyphs" textLength="73" x="345.685" y="832.7456">graphicsPath</text><rect fill="none" height="6" style="stroke: #C82930; stroke-width: 1.0;" width="6" x="333.685" y="840.2395"/><text fill="#000000" font-family="Verdana" font-size="11" lengthAdjust="spacingAndGlyphs" textLength="50" x="345.685" y="846.1143">selection</text><!--class Master--><rect fill="#F7F7F7" filter="url(#fp7ixlzv0zskd)" height="251.1611" id="Master" style="stroke: #01172F; stroke-width: 1.5;" width="210" x="731.185" y="325"/><ellipse cx="810.435" cy="341" fill="#BFEDC1" rx="11" ry="11" style="stroke: #01172F; stroke-width: 1.0;"/><path d="M814.7006,346.1719 Q813.1225,346.75 810.6694,346.75 Q808.1381,346.75 806.5834,345.2266 Q805.0288,343.7031 805.0288,341.2344 Q805.0288,338.7188 806.5756,337.1563 Q808.1225,335.5938 810.6069,335.5938 Q813.0288,335.5938 814.5444,336.0781 L814.5444,337.9531 Q811.9819,336.8281 810.56,336.8281 Q809.9038,336.8281 808.8413,338.0391 Q807.7788,339.25 807.7788,341.125 Q807.7788,343.0156 808.9819,344.2188 Q810.185,345.4219 811.0756,345.4219 Q812.2163,345.4219 814.7006,344.5156 L814.7006,346.1719 Z "/><text fill="#000000" font-family="Verdana" font-size="12" lengthAdjust="spacingAndGlyphs" textLength="43" x="830.935" y="345.7725">Master</text><line style="stroke: #01172F; stroke-width: 1.5;" x1="732.185" x2="940.185" y1="357" y2="357"/><ellipse cx="742.185" cy="369.1843" fill="none" rx="3" ry="3" style="stroke: #038048; stroke-width: 1.0;"/><text fill="#000000" font-family="Verdana" font-size="11" lengthAdjust="spacingAndGlyphs" textLength="56" x="751.185" y="372.0591">name: str</text><ellipse cx="742.185" cy="382.553" fill="none" rx="3" ry="3" style="stroke: #038048; stroke-width: 1.0;"/><text fill="#000000" font-family="Verdana" font-size="11" lengthAdjust="spacingAndGlyphs" textLength="43" x="751.185" y="385.4277">id: uuid</text><ellipse cx="742.185" cy="395.9216" fill="none" rx="3" ry="3" style="stroke: #038048; stroke-width: 1.0;"/><text fill="#000000" font-family="Verdana" font-size="11" lengthAdjust="spacingAndGlyphs" textLength="122" x="751.185" y="398.7964">location: Dict[str, int]</text><line style="stroke: #01172F; stroke-width: 1.0;" x1="732.185" x2="940.185" y1="405.106" y2="405.106"/><ellipse cx="742.185" cy="417.2903" fill="none" rx="3" ry="3" style="stroke: #038048; stroke-width: 1.0;"/><text fill="#000000" font-family="Verdana" font-size="11" lengthAdjust="spacingAndGlyphs" textLength="91" x="751.185" y="420.165">alignmentZones</text><ellipse cx="742.185" cy="430.6589" fill="none" rx="3" ry="3" style="stroke: #038048; stroke-width: 1.0;"/><text fill="#000000" font-family="Verdana" font-size="11" lengthAdjust="spacingAndGlyphs" textLength="95" x="751.185" y="433.5337">hStems: List[int]</text><ellipse cx="742.185" cy="444.0276" fill="none" rx="3" ry="3" style="stroke: #038048; stroke-width: 1.0;"/><text fill="#000000" font-family="Verdana" font-size="11" lengthAdjust="spacingAndGlyphs" textLength="43" x="751.185" y="446.9023">vStems</text><line style="stroke: #01172F; stroke-width: 1.0;" x1="732.185" x2="940.185" y1="453.2119" y2="453.2119"/><ellipse cx="742.185" cy="465.3962" fill="none" rx="3" ry="3" style="stroke: #038048; stroke-width: 1.0;"/><text fill="#000000" font-family="Verdana" font-size="11" lengthAdjust="spacingAndGlyphs" textLength="57" x="751.185" y="468.271">guidelines</text><ellipse cx="742.185" cy="478.7649" fill="none" rx="3" ry="3" style="stroke: #038048; stroke-width: 1.0;"/><text fill="#000000" font-family="Verdana" font-size="11" lengthAdjust="spacingAndGlyphs" textLength="184" x="751.185" y="481.6396">hKerning: Dict[str, Dict[str, int]]</text><ellipse cx="742.185" cy="492.1335" fill="none" rx="3" ry="3" style="stroke: #038048; stroke-width: 1.0;"/><text fill="#000000" font-family="Verdana" font-size="11" lengthAdjust="spacingAndGlyphs" textLength="51" x="751.185" y="495.0083">vKerning</text><line style="stroke: #01172F; stroke-width: 1.0;" x1="732.185" x2="940.185" y1="501.3179" y2="501.3179"/><ellipse cx="742.185" cy="513.5022" fill="none" rx="3" ry="3" style="stroke: #038048; stroke-width: 1.0;"/><text fill="#000000" font-family="Verdana" font-size="11" lengthAdjust="spacingAndGlyphs" textLength="75" x="751.185" y="516.377">ascender: int</text><ellipse cx="742.185" cy="526.8708" fill="none" rx="3" ry="3" style="stroke: #038048; stroke-width: 1.0;"/><text fill="#000000" font-family="Verdana" font-size="11" lengthAdjust="spacingAndGlyphs" textLength="79" x="751.185" y="529.7456">capHeight: int</text><ellipse cx="742.185" cy="540.2395" fill="none" rx="3" ry="3" style="stroke: #038048; stroke-width: 1.0;"/><text fill="#000000" font-family="Verdana" font-size="11" lengthAdjust="spacingAndGlyphs" textLength="82" x="751.185" y="543.1143">descender: int</text><ellipse cx="742.185" cy="553.6082" fill="none" rx="3" ry="3" style="stroke: #038048; stroke-width: 1.0;"/><text fill="#000000" font-family="Verdana" font-size="11" lengthAdjust="spacingAndGlyphs" textLength="92" x="751.185" y="556.4829">italicAngle: float</text><ellipse cx="742.185" cy="566.9768" fill="none" rx="3" ry="3" style="stroke: #038048; stroke-width: 1.0;"/><text fill="#000000" font-family="Verdana" font-size="11" lengthAdjust="spacingAndGlyphs" textLength="66" x="751.185" y="569.8516">xHeight: int</text><!--class Path--><rect fill="#F7F7F7" filter="url(#fp7ixlzv0zskd)" height="66.7373" id="Path" style="stroke: #01172F; stroke-width: 1.5;" width="99" x="563.685" y="932"/><ellipse cx="595.785" cy="948" fill="#BFEDC1" rx="11" ry="11" style="stroke: #01172F; stroke-width: 1.0;"/><path d="M600.0506,953.1719 Q598.4725,953.75 596.0194,953.75 Q593.4881,953.75 591.9334,952.2266 Q590.3788,950.7031 590.3788,948.2344 Q590.3788,945.7188 591.9256,944.1563 Q593.4725,942.5938 595.9569,942.5938 Q598.3788,942.5938 599.8944,943.0781 L599.8944,944.9531 Q597.3319,943.8281 595.91,943.8281 Q595.2538,943.8281 594.1913,945.0391 Q593.1288,946.25 593.1288,948.125 Q593.1288,950.0156 594.3319,951.2188 Q595.535,952.4219 596.4256,952.4219 Q597.5663,952.4219 600.0506,951.5156 L600.0506,953.1719 Z "/><text fill="#000000" font-family="Verdana" font-size="12" lengthAdjust="spacingAndGlyphs" textLength="29" x="613.585" y="952.7725">Path</text><line style="stroke: #01172F; stroke-width: 1.5;" x1="564.685" x2="661.685" y1="964" y2="964"/><rect fill="none" height="6" style="stroke: #C82930; stroke-width: 1.0;" width="6" x="571.685" y="973.1843"/><text fill="#000000" font-family="Verdana" font-size="11" lengthAdjust="spacingAndGlyphs" textLength="41" x="583.685" y="979.0591">bounds</text><rect fill="none" height="6" style="stroke: #C82930; stroke-width: 1.0;" width="6" x="571.685" y="986.553"/><text fill="#000000" font-family="Verdana" font-size="11" lengthAdjust="spacingAndGlyphs" textLength="73" x="583.685" y="992.4277">graphicsPath</text><!--class Point--><rect fill="#F7F7F7" filter="url(#fp7ixlzv0zskd)" height="120.2119" id="Point" style="stroke: #01172F; stroke-width: 1.5;" width="112" x="557.185" y="1079"/><ellipse cx="593.785" cy="1095" fill="#BFEDC1" rx="11" ry="11" style="stroke: #01172F; stroke-width: 1.0;"/><path d="M598.0506,1100.1719 Q596.4725,1100.75 594.0194,1100.75 Q591.4881,1100.75 589.9334,1099.2266 Q588.3788,1097.7031 588.3788,1095.2344 Q588.3788,1092.7188 589.9256,1091.1563 Q591.4725,1089.5938 593.9569,1089.5938 Q596.3788,1089.5938 597.8944,1090.0781 L597.8944,1091.9531 Q595.3319,1090.8281 593.91,1090.8281 Q593.2538,1090.8281 592.1913,1092.0391 Q591.1288,1093.25 591.1288,1095.125 Q591.1288,1097.0156 592.3319,1098.2188 Q593.535,1099.4219 594.4256,1099.4219 Q595.5663,1099.4219 598.0506,1098.5156 L598.0506,1100.1719 Z "/><text fill="#000000" font-family="Verdana" font-size="12" lengthAdjust="spacingAndGlyphs" textLength="32" x="612.585" y="1099.7725">Point</text><line style="stroke: #01172F; stroke-width: 1.5;" x1="558.185" x2="668.185" y1="1111" y2="1111"/><ellipse cx="568.185" cy="1123.1843" fill="none" rx="3" ry="3" style="stroke: #038048; stroke-width: 1.0;"/><text fill="#000000" font-family="Verdana" font-size="11" lengthAdjust="spacingAndGlyphs" textLength="61" x="577.185" y="1126.0591">x: Number</text><ellipse cx="568.185" cy="1136.553" fill="none" rx="3" ry="3" style="stroke: #038048; stroke-width: 1.0;"/><text fill="#000000" font-family="Verdana" font-size="11" lengthAdjust="spacingAndGlyphs" textLength="61" x="577.185" y="1139.4277">y: Number</text><ellipse cx="568.185" cy="1149.9216" fill="none" rx="3" ry="3" style="stroke: #038048; stroke-width: 1.0;"/><text fill="#000000" font-family="Verdana" font-size="11" lengthAdjust="spacingAndGlyphs" textLength="49" x="577.185" y="1152.7964">type: str</text><ellipse cx="568.185" cy="1163.2903" fill="none" rx="3" ry="3" style="stroke: #038048; stroke-width: 1.0;"/><text fill="#000000" font-family="Verdana" font-size="11" lengthAdjust="spacingAndGlyphs" textLength="75" x="577.185" y="1166.165">smooth: bool</text><polygon fill="none" points="568.185,1172.6589,564.185,1178.6589,572.185,1178.6589" style="stroke: #1963A0; stroke-width: 1.0;"/><text fill="#000000" font-family="Verdana" font-size="11" lengthAdjust="spacingAndGlyphs" textLength="86" x="577.185" y="1179.5337">extraData: dict</text><rect fill="none" height="6" style="stroke: #C82930; stroke-width: 1.0;" width="6" x="565.185" y="1187.0276"/><text fill="#000000" font-family="Verdana" font-size="11" lengthAdjust="spacingAndGlyphs" textLength="47" x="577.185" y="1192.9023">selected</text><!--link Font to Axis--><path d="M301.19,196.63 C254.215,230.446 197.987,275.85 156.185,325 C137.871,346.534 121.987,373.578 110,396.954 " fill="none" id="Font-Axis" style="stroke: #7A6563; stroke-width: 1.0;"/><polygon fill="#7A6563" points="311.988,188.94,304.7803,189.1629,302.2139,195.9019,309.4216,195.679,311.988,188.94" style="stroke: #7A6563; stroke-width: 1.0;"/><text fill="#000000" font-family="Verdana" font-size="13" lengthAdjust="spacingAndGlyphs" textLength="30" x="274.1873" y="190.784">axes</text><text fill="#000000" font-family="Verdana" font-size="13" lengthAdjust="spacingAndGlyphs" textLength="89" x="17.9619" y="386.1279">List/Dict[tag]</text><!--link Font to Feature--><path d="M309.831,276.816 C300.715,292.991 291.666,309.31 283.185,325 C266.541,355.794 248.614,391.491 236.156,416.745 " fill="none" id="Font-Feature" style="stroke: #7A6563; stroke-width: 1.0;"/><polygon fill="#7A6563" points="316.473,265.074,310.0373,268.327,310.5648,275.5188,317.0005,272.2658,316.473,265.074" style="stroke: #7A6563; stroke-width: 1.0;"/><text fill="#000000" font-family="Verdana" font-size="13" lengthAdjust="spacingAndGlyphs" textLength="55" x="255.8833" y="285.6201">features</text><text fill="#000000" font-family="Verdana" font-size="13" lengthAdjust="spacingAndGlyphs" textLength="23" x="214.0781" y="406.4155">List</text><!--link Font to Glyph--><path d="M391.185,278.514 C391.185,311.849 391.185,346.105 391.185,375.118 " fill="none" id="Font-Glyph" style="stroke: #7A6563; stroke-width: 1.0;"/><polygon fill="#7A6563" points="391.185,265.303,387.185,271.303,391.185,277.303,395.185,271.303,391.185,265.303" style="stroke: #7A6563; stroke-width: 1.0;"/><text fill="#000000" font-family="Verdana" font-size="13" lengthAdjust="spacingAndGlyphs" textLength="42" x="348.1022" y="285.4337">glyphs</text><text fill="#000000" font-family="Verdana" font-size="13" lengthAdjust="spacingAndGlyphs" textLength="23" x="366.9991" y="364.7035">List</text><!--link Font to Instance--><path d="M478.001,263.484 C501.808,298.032 527.021,334.62 548.73,366.123 " fill="none" id="Font-Instance" style="stroke: #7A6563; stroke-width: 1.0;"/><polygon fill="#7A6563" points="470.327,252.348,470.4376,259.5583,477.1357,262.2294,477.0251,255.0191,470.327,252.348" style="stroke: #7A6563; stroke-width: 1.0;"/><text fill="#000000" font-family="Verdana" font-size="13" lengthAdjust="spacingAndGlyphs" textLength="63" x="478.1065" y="258.0807">instances</text><text fill="#000000" font-family="Verdana" font-size="13" lengthAdjust="spacingAndGlyphs" textLength="23" x="519.3732" y="355.7451">List</text><!--link Font to Master--><path d="M482.054,182.12 C548.876,216.865 640.353,268.547 713.185,325 C719.189,329.654 725.193,334.585 731.14,339.697 " fill="none" id="Font-Master" style="stroke: #7A6563; stroke-width: 1.0;"/><polygon fill="#7A6563" points="470.294,176.05,473.7921,182.3558,480.9582,181.5522,477.4602,175.2463,470.294,176.05" style="stroke: #7A6563; stroke-width: 1.0;"/><text fill="#000000" font-family="Verdana" font-size="13" lengthAdjust="spacingAndGlyphs" textLength="52" x="478.3414" y="176.6223">masters</text><text fill="#000000" font-family="Verdana" font-size="13" lengthAdjust="spacingAndGlyphs" textLength="23" x="700.3096" y="329.8398">List</text><!--link Glyph to Layer--><path d="M391.185,539.038 C391.185,569.477 391.185,603.971 391.185,635.818 " fill="none" id="Glyph-Layer" style="stroke: #7A6563; stroke-width: 1.0;"/><polygon fill="#7A6563" points="391.185,525.812,387.185,531.812,391.185,537.812,395.185,531.812,391.185,525.812" style="stroke: #7A6563; stroke-width: 1.0;"/><text fill="#000000" font-family="Verdana" font-size="13" lengthAdjust="spacingAndGlyphs" textLength="39" x="350.5092" y="546.0508">layers</text><text fill="#000000" font-family="Verdana" font-size="13" lengthAdjust="spacingAndGlyphs" textLength="125" x="261.5952" y="625.4062">List/Dict[masterId]</text><!--link Layer to Anchor--><path d="M315.865,815.653 C277.818,851.343 233.006,893.378 200.724,923.659 " fill="none" id="Layer-Anchor" style="stroke: #7A6563; stroke-width: 1.0;"/><polygon fill="#7A6563" points="325.38,806.727,318.2674,807.9147,316.6281,814.937,323.7407,813.7493,325.38,806.727" style="stroke: #7A6563; stroke-width: 1.0;"/><text fill="#000000" font-family="Verdana" font-size="13" lengthAdjust="spacingAndGlyphs" textLength="52" x="265.7774" y="809.3859">anchors</text><text fill="#000000" font-family="Verdana" font-size="13" lengthAdjust="spacingAndGlyphs" textLength="102" x="205.8387" y="914.7541">List/Dict[name]</text><!--link Layer to Component--><path d="M346.557,864.463 C338.316,886.521 330.273,908.05 323.773,925.451 " fill="none" id="Layer-Component" style="stroke: #7A6563; stroke-width: 1.0;"/><polygon fill="#7A6563" points="351.146,852.178,345.2995,856.3992,346.9474,863.4195,352.7939,859.1983,351.146,852.178" style="stroke: #7A6563; stroke-width: 1.0;"/><text fill="#000000" font-family="Verdana" font-size="13" lengthAdjust="spacingAndGlyphs" textLength="80" x="265.5183" y="873.3946">components</text><text fill="#000000" font-family="Verdana" font-size="13" lengthAdjust="spacingAndGlyphs" textLength="23" x="328.583" y="914.8179">List</text><!--link Layer to Guideline--><path d="M435.953,864.834 C442.119,881.34 448.17,897.538 453.543,911.92 " fill="none" id="Layer-Guideline" style="stroke: #7A6563; stroke-width: 1.0;"/><polygon fill="#7A6563" points="431.224,852.178,429.5761,859.1983,435.4226,863.4195,437.0705,856.3992,431.224,852.178" style="stroke: #7A6563; stroke-width: 1.0;"/><text fill="#000000" font-family="Verdana" font-size="13" lengthAdjust="spacingAndGlyphs" textLength="64" x="367.7892" y="873.3946">guidelines</text><text fill="#000000" font-family="Verdana" font-size="13" lengthAdjust="spacingAndGlyphs" textLength="23" x="425.969" y="901.0889">List</text><!--link Layer to Path--><path d="M466.556,819.522 C505.165,857.697 550.208,902.232 580.078,931.766 " fill="none" id="Layer-Path" style="stroke: #7A6563; stroke-width: 1.0;"/><polygon fill="#7A6563" points="456.891,809.966,458.3453,817.0289,465.4243,818.403,463.97,811.3401,456.891,809.966" style="stroke: #7A6563; stroke-width: 1.0;"/><text fill="#000000" font-family="Verdana" font-size="13" lengthAdjust="spacingAndGlyphs" textLength="37" x="464.6537" y="813.443">paths</text><text fill="#000000" font-family="Verdana" font-size="13" lengthAdjust="spacingAndGlyphs" textLength="23" x="547.8778" y="921.4408">List</text><!--link Path to Point--><path d="M613.185,1012.263 C613.185,1032.666 613.185,1056.961 613.185,1078.731 " fill="none" id="Path-Point" style="stroke: #7A6563; stroke-width: 1.0;"/><polygon fill="#7A6563" points="613.185,999.162,609.185,1005.162,613.185,1011.162,617.185,1005.162,613.185,999.162" style="stroke: #7A6563; stroke-width: 1.0;"/><text fill="#000000" font-family="Verdana" font-size="13" lengthAdjust="spacingAndGlyphs" textLength="40" x="569.4975" y="1019.919">points</text><text fill="#000000" font-family="Verdana" font-size="13" lengthAdjust="spacingAndGlyphs" textLength="23" x="588.7116" y="1068.1556">List</text><!--
@startuml

skinparam defaultFontName Verdana
skinparam circledCharacterFontName "Lucida Console"
skinparam stereotypeCBackgroundColor #BFEDC1
skinparam class {
  ArrowColor #7A6563
  BackgroundColor #F7F7F7
  BorderColor #01172F
}

class Anchor {
  + name: str
  + x: Number
  + y: Number
  - selected
}

class Axis {
  + tag: str[4]
  + minimum: int
  + maximum: int
  + default: int
  + name: str?
}

class Component {
  + glyphName: str
  ~ transformation: tuple
  - selected
}

class Feature {
  + tag: str[4]
  + content: str
}

class Font {
  + date: datetime
  + familyName: str
  - - -
  + copyright: str
  + designer: str
  + designerURL: str
  + manufacturer: str
  + manufacturerURL: str
  + unitsPerEm: int
  + versionMajor: int
  + versionMinor: int
  - - -
  + extraData: dict
  - cmap: dict
  - layoutEngine
  - modified: bool
  - selectedMaster: Master
}

class Glyph {
  + name: str
  + unicodes: List[str]
  - - -
  + {l,r,b,t}KerningGroup: str?
  - - -
  + color: tuple
  ~ extraData: dict
  - lastModified: float?
  - selected
}

class Guideline {
  + x: Number
  + y: Number
  + angle: Number
  + name: str?
  - selected
}

class Instance {
  + familyName: str
  + styleName: str
  + location: Dict[str, int]
  - - -
  + bold: bool
  + italic: bool
  + preferredFamilyName: str?
  + preferredSubfamilyName
  + postscriptFontName
  + postscriptFullName
}

class Layer {
  + masterId: uuid
  + masterLayer: bool
  ~ name: str
  - - -
  + width: Number
  + height: Number
  + yOrigin: Number?
  - - -
  + color: tuple
  ~ extraData: dict
  ~ visible: bool
  - bounds
  - graphicsPath
  - selection
}

class Master {
  + name: str
  + id: uuid
  + location: Dict[str, int]
  - - -
  + alignmentZones
  + hStems: List[int]
  + vStems
  - - -
  + guidelines
  + hKerning: Dict[str, Dict[str, int]]
  + vKerning
  - - -
  + ascender: int
  + capHeight: int
  + descender: int
  + italicAngle: float
  + xHeight: int
}

class Path {
  - bounds
  - graphicsPath
}

class Point {
  + x: Number
  + y: Number
  + type: str
  + smooth: bool
  ~ extraData: dict
  - selected
}

Font "axes" *- - "List/Dict[tag]" Axis
Font "features" *- - "List" Feature
Font "glyphs" *- - "List" Glyph
Font "instances" *- - "List" Instance
Font "masters" *- - "List" Master
Glyph "layers" *- - "List/Dict[masterId]" Layer
Layer "anchors" *- - "List/Dict[name]" Anchor
Layer "components" *- - "List" Component
Layer "guidelines" *- - "List" Guideline
Layer "paths" *- - "List" Path
Path "points" *- - "List" Point

hide empty members
hide empty methods

@enduml

PlantUML version 1.2018.01(Sun Jan 28 19:08:22 CET 2018)
(GPL source distribution)
Java Runtime: Java(TM) SE Runtime Environment
JVM: Java HotSpot(TM) 64-Bit Server VM
Java Version: 1.8.0_131-b11
Operating System: Windows 10
OS Version: 10.0
Default Encoding: Cp1252
Language: fr
Country: FR
--></g></svg>