<?xml version="1.0" encoding="UTF-8" standalone="no"?><svg xmlns="http://www.w3.org/2000/svg" xmlns:xlink="http://www.w3.org/1999/xlink" contentScriptType="application/ecmascript" contentStyleType="text/css" height="1210px" preserveAspectRatio="none" style="width:925px;height:1210px;" version="1.1" viewBox="0 0 925 1210" width="925px" zoomAndPan="magnify"><defs><filter height="300%" id="f1ggv0680tkgke" width="300%" x="-1" y="-1"><feGaussianBlur result="blurOut" stdDeviation="2.0"/><feColorMatrix in="blurOut" result="blurOut2" type="matrix" values="0 0 0 0 0 0 0 0 0 0 0 0 0 0 0 0 0 0 .4 0"/><feOffset dx="4.0" dy="4.0" in="blurOut2" result="blurOut3"/><feBlend in="SourceGraphic" in2="blurOut3" mode="normal"/></filter></defs><g><!--class Anchor--><rect fill="#F7F7F7" filter="url(#f1ggv0680tkgke)" height="93.4746" id="Anchor" style="stroke: #01172F; stroke-width: 1.5;" width="87" x="86.5" y="919"/><ellipse cx="106.9" cy="935" fill="#BFEDC1" rx="11" ry="11" style="stroke: #01172F; stroke-width: 1.0;"/><path d="M111.1656,940.1719 Q109.5875,940.75 107.1344,940.75 Q104.6031,940.75 103.0484,939.2266 Q101.4938,937.7031 101.4938,935.2344 Q101.4938,932.7188 103.0406,931.1563 Q104.5875,929.5938 107.0719,929.5938 Q109.4938,929.5938 111.0094,930.0781 L111.0094,931.9531 Q108.4469,930.8281 107.025,930.8281 Q106.3688,930.8281 105.3063,932.0391 Q104.2438,933.25 104.2438,935.125 Q104.2438,937.0156 105.4469,938.2188 Q106.65,939.4219 107.5406,939.4219 Q108.6813,939.4219 111.1656,938.5156 L111.1656,940.1719 Z "/><text fill="#000000" font-family="Verdana" font-size="12" lengthAdjust="spacingAndGlyphs" textLength="43" x="122.1" y="939.7725">Anchor</text><line style="stroke: #01172F; stroke-width: 1.5;" x1="87.5" x2="172.5" y1="951" y2="951"/><ellipse cx="97.5" cy="963.1843" fill="none" rx="3" ry="3" style="stroke: #038048; stroke-width: 1.0;"/><text fill="#000000" font-family="Verdana" font-size="11" lengthAdjust="spacingAndGlyphs" textLength="61" x="106.5" y="966.0591">x: Number</text><ellipse cx="97.5" cy="976.553" fill="none" rx="3" ry="3" style="stroke: #038048; stroke-width: 1.0;"/><text fill="#000000" font-family="Verdana" font-size="11" lengthAdjust="spacingAndGlyphs" textLength="61" x="106.5" y="979.4277">y: Number</text><ellipse cx="97.5" cy="989.9216" fill="none" rx="3" ry="3" style="stroke: #038048; stroke-width: 1.0;"/><text fill="#000000" font-family="Verdana" font-size="11" lengthAdjust="spacingAndGlyphs" textLength="56" x="106.5" y="992.7964">name: str</text><rect fill="none" height="6" style="stroke: #C82930; stroke-width: 1.0;" width="6" x="94.5" y="1000.2903"/><text fill="#000000" font-family="Verdana" font-size="11" lengthAdjust="spacingAndGlyphs" textLength="47" x="106.5" y="1006.165">selected</text><!--class Axis--><rect fill="#F7F7F7" filter="url(#f1ggv0680tkgke)" height="106.8433" id="Axis" style="stroke: #01172F; stroke-width: 1.5;" width="106" x="6" y="397"/><ellipse cx="43.05" cy="413" fill="#BFEDC1" rx="11" ry="11" style="stroke: #01172F; stroke-width: 1.0;"/><path d="M47.3156,418.1719 Q45.7375,418.75 43.2844,418.75 Q40.7531,418.75 39.1984,417.2266 Q37.6438,415.7031 37.6438,413.2344 Q37.6438,410.7188 39.1906,409.1563 Q40.7375,407.5938 43.2219,407.5938 Q45.6438,407.5938 47.1594,408.0781 L47.1594,409.9531 Q44.5969,408.8281 43.175,408.8281 Q42.5188,408.8281 41.4563,410.0391 Q40.3938,411.25 40.3938,413.125 Q40.3938,415.0156 41.5969,416.2188 Q42.8,417.4219 43.6906,417.4219 Q44.8313,417.4219 47.3156,416.5156 L47.3156,418.1719 Z "/><text fill="#000000" font-family="Verdana" font-size="12" lengthAdjust="spacingAndGlyphs" textLength="25" x="61.95" y="417.7725">Axis</text><line style="stroke: #01172F; stroke-width: 1.5;" x1="7" x2="111" y1="429" y2="429"/><ellipse cx="17" cy="441.1843" fill="none" rx="3" ry="3" style="stroke: #038048; stroke-width: 1.0;"/><text fill="#000000" font-family="Verdana" font-size="11" lengthAdjust="spacingAndGlyphs" textLength="76" x="26" y="444.0591">minimum: int</text><ellipse cx="17" cy="454.553" fill="none" rx="3" ry="3" style="stroke: #038048; stroke-width: 1.0;"/><text fill="#000000" font-family="Verdana" font-size="11" lengthAdjust="spacingAndGlyphs" textLength="80" x="26" y="457.4277">maximum: int</text><ellipse cx="17" cy="467.9216" fill="none" rx="3" ry="3" style="stroke: #038048; stroke-width: 1.0;"/><text fill="#000000" font-family="Verdana" font-size="11" lengthAdjust="spacingAndGlyphs" textLength="62" x="26" y="470.7964">default: int</text><ellipse cx="17" cy="481.2903" fill="none" rx="3" ry="3" style="stroke: #038048; stroke-width: 1.0;"/><text fill="#000000" font-family="Verdana" font-size="11" lengthAdjust="spacingAndGlyphs" textLength="59" x="26" y="484.165">tag: str[4]</text><ellipse cx="17" cy="494.6589" fill="none" rx="3" ry="3" style="stroke: #038048; stroke-width: 1.0;"/><text fill="#000000" font-family="Verdana" font-size="11" lengthAdjust="spacingAndGlyphs" textLength="62" x="26" y="497.5337">name: str?</text><!--class Component--><rect fill="#F7F7F7" filter="url(#f1ggv0680tkgke)" height="80.106" id="Component" style="stroke: #01172F; stroke-width: 1.5;" width="147" x="208.5" y="925.5"/><ellipse cx="242.4" cy="941.5" fill="#BFEDC1" rx="11" ry="11" style="stroke: #01172F; stroke-width: 1.0;"/><path d="M246.6656,946.6719 Q245.0875,947.25 242.6344,947.25 Q240.1031,947.25 238.5484,945.7266 Q236.9938,944.2031 236.9938,941.7344 Q236.9938,939.2188 238.5406,937.6563 Q240.0875,936.0938 242.5719,936.0938 Q244.9938,936.0938 246.5094,936.5781 L246.5094,938.4531 Q243.9469,937.3281 242.525,937.3281 Q241.8688,937.3281 240.8063,938.5391 Q239.7438,939.75 239.7438,941.625 Q239.7438,943.5156 240.9469,944.7188 Q242.15,945.9219 243.0406,945.9219 Q244.1813,945.9219 246.6656,945.0156 L246.6656,946.6719 Z "/><text fill="#000000" font-family="Verdana" font-size="12" lengthAdjust="spacingAndGlyphs" textLength="73" x="260.6" y="946.2725">Component</text><line style="stroke: #01172F; stroke-width: 1.5;" x1="209.5" x2="354.5" y1="957.5" y2="957.5"/><ellipse cx="219.5" cy="969.6843" fill="none" rx="3" ry="3" style="stroke: #038048; stroke-width: 1.0;"/><text fill="#000000" font-family="Verdana" font-size="11" lengthAdjust="spacingAndGlyphs" textLength="88" x="228.5" y="972.5591">glyphName: str</text><polygon fill="none" points="219.5,979.053,215.5,985.053,223.5,985.053" style="stroke: #1963A0; stroke-width: 1.0;"/><text fill="#000000" font-family="Verdana" font-size="11" lengthAdjust="spacingAndGlyphs" textLength="121" x="228.5" y="985.9277">transformation: tuple</text><rect fill="none" height="6" style="stroke: #C82930; stroke-width: 1.0;" width="6" x="216.5" y="993.4216"/><text fill="#000000" font-family="Verdana" font-size="11" lengthAdjust="spacingAndGlyphs" textLength="47" x="228.5" y="999.2964">selected</text><!--class Feature--><rect fill="#F7F7F7" filter="url(#f1ggv0680tkgke)" height="66.7373" id="Feature" style="stroke: #01172F; stroke-width: 1.5;" width="92" x="147" y="417"/><ellipse cx="166.95" cy="433" fill="#BFEDC1" rx="11" ry="11" style="stroke: #01172F; stroke-width: 1.0;"/><path d="M171.2156,438.1719 Q169.6375,438.75 167.1844,438.75 Q164.6531,438.75 163.0984,437.2266 Q161.5438,435.7031 161.5438,433.2344 Q161.5438,430.7188 163.0906,429.1563 Q164.6375,427.5938 167.1219,427.5938 Q169.5438,427.5938 171.0594,428.0781 L171.0594,429.9531 Q168.4969,428.8281 167.075,428.8281 Q166.4188,428.8281 165.3563,430.0391 Q164.2938,431.25 164.2938,433.125 Q164.2938,435.0156 165.4969,436.2188 Q166.7,437.4219 167.5906,437.4219 Q168.7313,437.4219 171.2156,436.5156 L171.2156,438.1719 Z "/><text fill="#000000" font-family="Verdana" font-size="12" lengthAdjust="spacingAndGlyphs" textLength="49" x="182.05" y="437.7725">Feature</text><line style="stroke: #01172F; stroke-width: 1.5;" x1="148" x2="238" y1="449" y2="449"/><ellipse cx="158" cy="461.1843" fill="none" rx="3" ry="3" style="stroke: #038048; stroke-width: 1.0;"/><text fill="#000000" font-family="Verdana" font-size="11" lengthAdjust="spacingAndGlyphs" textLength="59" x="167" y="464.0591">tag: str[4]</text><ellipse cx="158" cy="474.553" fill="none" rx="3" ry="3" style="stroke: #038048; stroke-width: 1.0;"/><text fill="#000000" font-family="Verdana" font-size="11" lengthAdjust="spacingAndGlyphs" textLength="66" x="167" y="477.4277">content: str</text><!--class Font--><rect fill="#F7F7F7" filter="url(#f1ggv0680tkgke)" height="256.5298" id="Font" style="stroke: #01172F; stroke-width: 1.5;" width="158" x="285" y="8"/><ellipse cx="345.75" cy="24" fill="#BFEDC1" rx="11" ry="11" style="stroke: #01172F; stroke-width: 1.0;"/><path d="M350.0156,29.1719 Q348.4375,29.75 345.9844,29.75 Q343.4531,29.75 341.8984,28.2266 Q340.3438,26.7031 340.3438,24.2344 Q340.3438,21.7188 341.8906,20.1563 Q343.4375,18.5938 345.9219,18.5938 Q348.3438,18.5938 349.8594,19.0781 L349.8594,20.9531 Q347.2969,19.8281 345.875,19.8281 Q345.2188,19.8281 344.1563,21.0391 Q343.0938,22.25 343.0938,24.125 Q343.0938,26.0156 344.2969,27.2188 Q345.5,28.4219 346.3906,28.4219 Q347.5313,28.4219 350.0156,27.5156 L350.0156,29.1719 Z "/><text fill="#000000" font-family="Verdana" font-size="12" lengthAdjust="spacingAndGlyphs" textLength="28" x="366.25" y="28.7725">Font</text><line style="stroke: #01172F; stroke-width: 1.5;" x1="286" x2="442" y1="40" y2="40"/><ellipse cx="296" cy="52.1843" fill="none" rx="3" ry="3" style="stroke: #038048; stroke-width: 1.0;"/><text fill="#000000" font-family="Verdana" font-size="11" lengthAdjust="spacingAndGlyphs" textLength="84" x="305" y="55.0591">date: datetime</text><ellipse cx="296" cy="65.553" fill="none" rx="3" ry="3" style="stroke: #038048; stroke-width: 1.0;"/><text fill="#000000" font-family="Verdana" font-size="11" lengthAdjust="spacingAndGlyphs" textLength="92" x="305" y="68.4277">familyName: str</text><line style="stroke: #01172F; stroke-width: 1.0;" x1="286" x2="442" y1="74.7373" y2="74.7373"/><ellipse cx="296" cy="86.9216" fill="none" rx="3" ry="3" style="stroke: #038048; stroke-width: 1.0;"/><text fill="#000000" font-family="Verdana" font-size="11" lengthAdjust="spacingAndGlyphs" textLength="77" x="305" y="89.7964">copyright: str</text><ellipse cx="296" cy="100.2903" fill="none" rx="3" ry="3" style="stroke: #038048; stroke-width: 1.0;"/><text fill="#000000" font-family="Verdana" font-size="11" lengthAdjust="spacingAndGlyphs" textLength="73" x="305" y="103.165">designer: str</text><ellipse cx="296" cy="113.6589" fill="none" rx="3" ry="3" style="stroke: #038048; stroke-width: 1.0;"/><text fill="#000000" font-family="Verdana" font-size="11" lengthAdjust="spacingAndGlyphs" textLength="95" x="305" y="116.5337">designerURL: str</text><ellipse cx="296" cy="127.0276" fill="none" rx="3" ry="3" style="stroke: #038048; stroke-width: 1.0;"/><text fill="#000000" font-family="Verdana" font-size="11" lengthAdjust="spacingAndGlyphs" textLength="101" x="305" y="129.9023">manufacturer: str</text><ellipse cx="296" cy="140.3962" fill="none" rx="3" ry="3" style="stroke: #038048; stroke-width: 1.0;"/><text fill="#000000" font-family="Verdana" font-size="11" lengthAdjust="spacingAndGlyphs" textLength="123" x="305" y="143.271">manufacturerURL: str</text><ellipse cx="296" cy="153.7649" fill="none" rx="3" ry="3" style="stroke: #038048; stroke-width: 1.0;"/><text fill="#000000" font-family="Verdana" font-size="11" lengthAdjust="spacingAndGlyphs" textLength="87" x="305" y="156.6396">unitsPerEm: int</text><ellipse cx="296" cy="167.1335" fill="none" rx="3" ry="3" style="stroke: #038048; stroke-width: 1.0;"/><text fill="#000000" font-family="Verdana" font-size="11" lengthAdjust="spacingAndGlyphs" textLength="97" x="305" y="170.0083">versionMajor: int</text><ellipse cx="296" cy="180.5022" fill="none" rx="3" ry="3" style="stroke: #038048; stroke-width: 1.0;"/><text fill="#000000" font-family="Verdana" font-size="11" lengthAdjust="spacingAndGlyphs" textLength="96" x="305" y="183.377">versionMinor: int</text><line style="stroke: #01172F; stroke-width: 1.0;" x1="286" x2="442" y1="189.6865" y2="189.6865"/><ellipse cx="296" cy="201.8708" fill="none" rx="3" ry="3" style="stroke: #038048; stroke-width: 1.0;"/><text fill="#000000" font-family="Verdana" font-size="11" lengthAdjust="spacingAndGlyphs" textLength="86" x="305" y="204.7456">extraData: dict</text><rect fill="none" height="6" style="stroke: #C82930; stroke-width: 1.0;" width="6" x="293" y="212.2395"/><text fill="#000000" font-family="Verdana" font-size="11" lengthAdjust="spacingAndGlyphs" textLength="60" x="305" y="218.1143">cmap: dict</text><rect fill="none" height="6" style="stroke: #C82930; stroke-width: 1.0;" width="6" x="293" y="225.6082"/><text fill="#000000" font-family="Verdana" font-size="11" lengthAdjust="spacingAndGlyphs" textLength="73" x="305" y="231.4829">layoutEngine</text><rect fill="none" height="6" style="stroke: #C82930; stroke-width: 1.0;" width="6" x="293" y="238.9768"/><text fill="#000000" font-family="Verdana" font-size="11" lengthAdjust="spacingAndGlyphs" textLength="82" x="305" y="244.8516">modified: bool</text><rect fill="none" height="6" style="stroke: #C82930; stroke-width: 1.0;" width="6" x="293" y="252.3455"/><text fill="#000000" font-family="Verdana" font-size="11" lengthAdjust="spacingAndGlyphs" textLength="132" x="305" y="258.2202">selectedMaster: Master</text><!--class Glyph--><rect fill="#F7F7F7" filter="url(#f1ggv0680tkgke)" height="149.5806" id="Glyph" style="stroke: #01172F; stroke-width: 1.5;" width="180" x="274" y="375.5"/><ellipse cx="342.25" cy="391.5" fill="#BFEDC1" rx="11" ry="11" style="stroke: #01172F; stroke-width: 1.0;"/><path d="M346.5156,396.6719 Q344.9375,397.25 342.4844,397.25 Q339.9531,397.25 338.3984,395.7266 Q336.8438,394.2031 336.8438,391.7344 Q336.8438,389.2188 338.3906,387.6563 Q339.9375,386.0938 342.4219,386.0938 Q344.8438,386.0938 346.3594,386.5781 L346.3594,388.4531 Q343.7969,387.3281 342.375,387.3281 Q341.7188,387.3281 340.6563,388.5391 Q339.5938,389.75 339.5938,391.625 Q339.5938,393.5156 340.7969,394.7188 Q342,395.9219 342.8906,395.9219 Q344.0313,395.9219 346.5156,395.0156 L346.5156,396.6719 Z "/><text fill="#000000" font-family="Verdana" font-size="12" lengthAdjust="spacingAndGlyphs" textLength="35" x="362.75" y="396.2725">Glyph</text><line style="stroke: #01172F; stroke-width: 1.5;" x1="275" x2="453" y1="407.5" y2="407.5"/><ellipse cx="285" cy="419.6843" fill="none" rx="3" ry="3" style="stroke: #038048; stroke-width: 1.0;"/><text fill="#000000" font-family="Verdana" font-size="11" lengthAdjust="spacingAndGlyphs" textLength="56" x="294" y="422.5591">name: str</text><ellipse cx="285" cy="433.053" fill="none" rx="3" ry="3" style="stroke: #038048; stroke-width: 1.0;"/><text fill="#000000" font-family="Verdana" font-size="11" lengthAdjust="spacingAndGlyphs" textLength="103" x="294" y="435.9277">unicodes: List[str]</text><line style="stroke: #01172F; stroke-width: 1.0;" x1="275" x2="453" y1="442.2373" y2="442.2373"/><ellipse cx="285" cy="454.4216" fill="none" rx="3" ry="3" style="stroke: #038048; stroke-width: 1.0;"/><text fill="#000000" font-family="Verdana" font-size="11" lengthAdjust="spacingAndGlyphs" textLength="154" x="294" y="457.2964">{l,r,b,t}KerningGroup: str?</text><line style="stroke: #01172F; stroke-width: 1.0;" x1="275" x2="453" y1="463.606" y2="463.606"/><ellipse cx="285" cy="475.7903" fill="none" rx="3" ry="3" style="stroke: #038048; stroke-width: 1.0;"/><text fill="#000000" font-family="Verdana" font-size="11" lengthAdjust="spacingAndGlyphs" textLength="65" x="294" y="478.665">color: tuple</text><polygon fill="none" points="285,485.1589,281,491.1589,289,491.1589" style="stroke: #1963A0; stroke-width: 1.0;"/><text fill="#000000" font-family="Verdana" font-size="11" lengthAdjust="spacingAndGlyphs" textLength="86" x="294" y="492.0337">extraData: dict</text><rect fill="none" height="6" style="stroke: #C82930; stroke-width: 1.0;" width="6" x="282" y="499.5276"/><text fill="#000000" font-family="Verdana" font-size="11" lengthAdjust="spacingAndGlyphs" textLength="107" x="294" y="505.4023">lastModified: float?</text><rect fill="none" height="6" style="stroke: #C82930; stroke-width: 1.0;" width="6" x="282" y="512.8962"/><text fill="#000000" font-family="Verdana" font-size="11" lengthAdjust="spacingAndGlyphs" textLength="47" x="294" y="518.771">selected</text><!--class Guideline--><rect fill="#F7F7F7" filter="url(#f1ggv0680tkgke)" height="106.8433" id="Guideline" style="stroke: #01172F; stroke-width: 1.5;" width="111" x="390.5" y="912"/><ellipse cx="414.95" cy="928" fill="#BFEDC1" rx="11" ry="11" style="stroke: #01172F; stroke-width: 1.0;"/><path d="M419.2156,933.1719 Q417.6375,933.75 415.1844,933.75 Q412.6531,933.75 411.0984,932.2266 Q409.5438,930.7031 409.5438,928.2344 Q409.5438,925.7188 411.0906,924.1563 Q412.6375,922.5938 415.1219,922.5938 Q417.5438,922.5938 419.0594,923.0781 L419.0594,924.9531 Q416.4969,923.8281 415.075,923.8281 Q414.4188,923.8281 413.3563,925.0391 Q412.2938,926.25 412.2938,928.125 Q412.2938,930.0156 413.4969,931.2188 Q414.7,932.4219 415.5906,932.4219 Q416.7313,932.4219 419.2156,931.5156 L419.2156,933.1719 Z "/><text fill="#000000" font-family="Verdana" font-size="12" lengthAdjust="spacingAndGlyphs" textLength="58" x="431.05" y="932.7725">Guideline</text><line style="stroke: #01172F; stroke-width: 1.5;" x1="391.5" x2="500.5" y1="944" y2="944"/><ellipse cx="401.5" cy="956.1843" fill="none" rx="3" ry="3" style="stroke: #038048; stroke-width: 1.0;"/><text fill="#000000" font-family="Verdana" font-size="11" lengthAdjust="spacingAndGlyphs" textLength="61" x="410.5" y="959.0591">x: Number</text><ellipse cx="401.5" cy="969.553" fill="none" rx="3" ry="3" style="stroke: #038048; stroke-width: 1.0;"/><text fill="#000000" font-family="Verdana" font-size="11" lengthAdjust="spacingAndGlyphs" textLength="61" x="410.5" y="972.4277">y: Number</text><ellipse cx="401.5" cy="982.9216" fill="none" rx="3" ry="3" style="stroke: #038048; stroke-width: 1.0;"/><text fill="#000000" font-family="Verdana" font-size="11" lengthAdjust="spacingAndGlyphs" textLength="85" x="410.5" y="985.7964">angle: Number</text><ellipse cx="401.5" cy="996.2903" fill="none" rx="3" ry="3" style="stroke: #038048; stroke-width: 1.0;"/><text fill="#000000" font-family="Verdana" font-size="11" lengthAdjust="spacingAndGlyphs" textLength="62" x="410.5" y="999.165">name: str?</text><rect fill="none" height="6" style="stroke: #C82930; stroke-width: 1.0;" width="6" x="398.5" y="1006.6589"/><text fill="#000000" font-family="Verdana" font-size="11" lengthAdjust="spacingAndGlyphs" textLength="47" x="410.5" y="1012.5337">selected</text><!--class Instance--><rect fill="#F7F7F7" filter="url(#f1ggv0680tkgke)" height="168.3179" id="Instance" style="stroke: #01172F; stroke-width: 1.5;" width="180" x="489" y="366.5"/><ellipse cx="547.25" cy="382.5" fill="#BFEDC1" rx="11" ry="11" style="stroke: #01172F; stroke-width: 1.0;"/><path d="M551.5156,387.6719 Q549.9375,388.25 547.4844,388.25 Q544.9531,388.25 543.3984,386.7266 Q541.8438,385.2031 541.8438,382.7344 Q541.8438,380.2188 543.3906,378.6563 Q544.9375,377.0938 547.4219,377.0938 Q549.8438,377.0938 551.3594,377.5781 L551.3594,379.4531 Q548.7969,378.3281 547.375,378.3281 Q546.7188,378.3281 545.6563,379.5391 Q544.5938,380.75 544.5938,382.625 Q544.5938,384.5156 545.7969,385.7188 Q547,386.9219 547.8906,386.9219 Q549.0313,386.9219 551.5156,386.0156 L551.5156,387.6719 Z "/><text fill="#000000" font-family="Verdana" font-size="12" lengthAdjust="spacingAndGlyphs" textLength="55" x="567.75" y="387.2725">Instance</text><line style="stroke: #01172F; stroke-width: 1.5;" x1="490" x2="668" y1="398.5" y2="398.5"/><ellipse cx="500" cy="410.6843" fill="none" rx="3" ry="3" style="stroke: #038048; stroke-width: 1.0;"/><text fill="#000000" font-family="Verdana" font-size="11" lengthAdjust="spacingAndGlyphs" textLength="92" x="509" y="413.5591">familyName: str</text><ellipse cx="500" cy="424.053" fill="none" rx="3" ry="3" style="stroke: #038048; stroke-width: 1.0;"/><text fill="#000000" font-family="Verdana" font-size="11" lengthAdjust="spacingAndGlyphs" textLength="84" x="509" y="426.9277">styleName: str</text><ellipse cx="500" cy="437.4216" fill="none" rx="3" ry="3" style="stroke: #038048; stroke-width: 1.0;"/><text fill="#000000" font-family="Verdana" font-size="11" lengthAdjust="spacingAndGlyphs" textLength="122" x="509" y="440.2964">location: Dict[str, int]</text><line style="stroke: #01172F; stroke-width: 1.0;" x1="490" x2="668" y1="446.606" y2="446.606"/><ellipse cx="500" cy="458.7903" fill="none" rx="3" ry="3" style="stroke: #038048; stroke-width: 1.0;"/><text fill="#000000" font-family="Verdana" font-size="11" lengthAdjust="spacingAndGlyphs" textLength="57" x="509" y="461.665">bold: bool</text><ellipse cx="500" cy="472.1589" fill="none" rx="3" ry="3" style="stroke: #038048; stroke-width: 1.0;"/><text fill="#000000" font-family="Verdana" font-size="11" lengthAdjust="spacingAndGlyphs" textLength="59" x="509" y="475.0337">italic: bool</text><ellipse cx="500" cy="485.5276" fill="none" rx="3" ry="3" style="stroke: #038048; stroke-width: 1.0;"/><text fill="#000000" font-family="Verdana" font-size="11" lengthAdjust="spacingAndGlyphs" textLength="154" x="509" y="488.4023">preferredFamilyName: str?</text><ellipse cx="500" cy="498.8962" fill="none" rx="3" ry="3" style="stroke: #038048; stroke-width: 1.0;"/><text fill="#000000" font-family="Verdana" font-size="11" lengthAdjust="spacingAndGlyphs" textLength="144" x="509" y="501.771">preferredSubfamilyName</text><ellipse cx="500" cy="512.2649" fill="none" rx="3" ry="3" style="stroke: #038048; stroke-width: 1.0;"/><text fill="#000000" font-family="Verdana" font-size="11" lengthAdjust="spacingAndGlyphs" textLength="112" x="509" y="515.1396">postscriptFontName</text><ellipse cx="500" cy="525.6335" fill="none" rx="3" ry="3" style="stroke: #038048; stroke-width: 1.0;"/><text fill="#000000" font-family="Verdana" font-size="11" lengthAdjust="spacingAndGlyphs" textLength="107" x="509" y="528.5083">postscriptFullName</text><!--class Layer--><rect fill="#F7F7F7" filter="url(#f1ggv0680tkgke)" height="216.4238" id="Layer" style="stroke: #01172F; stroke-width: 1.5;" width="131" x="298.5" y="636"/><ellipse cx="342.3" cy="652" fill="#BFEDC1" rx="11" ry="11" style="stroke: #01172F; stroke-width: 1.0;"/><path d="M346.5656,657.1719 Q344.9875,657.75 342.5344,657.75 Q340.0031,657.75 338.4484,656.2266 Q336.8938,654.7031 336.8938,652.2344 Q336.8938,649.7188 338.4406,648.1563 Q339.9875,646.5938 342.4719,646.5938 Q344.8938,646.5938 346.4094,647.0781 L346.4094,648.9531 Q343.8469,647.8281 342.425,647.8281 Q341.7688,647.8281 340.7063,649.0391 Q339.6438,650.25 339.6438,652.125 Q339.6438,654.0156 340.8469,655.2188 Q342.05,656.4219 342.9406,656.4219 Q344.0813,656.4219 346.5656,655.5156 L346.5656,657.1719 Z "/><text fill="#000000" font-family="Verdana" font-size="12" lengthAdjust="spacingAndGlyphs" textLength="35" x="362.7" y="656.7725">Layer</text><line style="stroke: #01172F; stroke-width: 1.5;" x1="299.5" x2="428.5" y1="668" y2="668"/><ellipse cx="309.5" cy="680.1843" fill="none" rx="3" ry="3" style="stroke: #038048; stroke-width: 1.0;"/><text fill="#000000" font-family="Verdana" font-size="11" lengthAdjust="spacingAndGlyphs" textLength="85" x="318.5" y="683.0591">masterId: uuid</text><ellipse cx="309.5" cy="693.553" fill="none" rx="3" ry="3" style="stroke: #038048; stroke-width: 1.0;"/><text fill="#000000" font-family="Verdana" font-size="11" lengthAdjust="spacingAndGlyphs" textLength="105" x="318.5" y="696.4277">masterLayer: bool</text><polygon fill="none" points="309.5,702.9216,305.5,708.9216,313.5,708.9216" style="stroke: #1963A0; stroke-width: 1.0;"/><text fill="#000000" font-family="Verdana" font-size="11" lengthAdjust="spacingAndGlyphs" textLength="56" x="318.5" y="709.7964">name: str</text><line style="stroke: #01172F; stroke-width: 1.0;" x1="299.5" x2="428.5" y1="716.106" y2="716.106"/><ellipse cx="309.5" cy="728.2903" fill="none" rx="3" ry="3" style="stroke: #038048; stroke-width: 1.0;"/><text fill="#000000" font-family="Verdana" font-size="11" lengthAdjust="spacingAndGlyphs" textLength="84" x="318.5" y="731.165">width: Number</text><ellipse cx="309.5" cy="741.6589" fill="none" rx="3" ry="3" style="stroke: #038048; stroke-width: 1.0;"/><text fill="#000000" font-family="Verdana" font-size="11" lengthAdjust="spacingAndGlyphs" textLength="89" x="318.5" y="744.5337">height: Number</text><ellipse cx="309.5" cy="755.0276" fill="none" rx="3" ry="3" style="stroke: #038048; stroke-width: 1.0;"/><text fill="#000000" font-family="Verdana" font-size="11" lengthAdjust="spacingAndGlyphs" textLength="101" x="318.5" y="757.9023">yOrigin: Number?</text><line style="stroke: #01172F; stroke-width: 1.0;" x1="299.5" x2="428.5" y1="764.2119" y2="764.2119"/><ellipse cx="309.5" cy="776.3962" fill="none" rx="3" ry="3" style="stroke: #038048; stroke-width: 1.0;"/><text fill="#000000" font-family="Verdana" font-size="11" lengthAdjust="spacingAndGlyphs" textLength="65" x="318.5" y="779.271">color: tuple</text><polygon fill="none" points="309.5,785.7649,305.5,791.7649,313.5,791.7649" style="stroke: #1963A0; stroke-width: 1.0;"/><text fill="#000000" font-family="Verdana" font-size="11" lengthAdjust="spacingAndGlyphs" textLength="86" x="318.5" y="792.6396">extraData: dict</text><polygon fill="none" points="309.5,799.1335,305.5,805.1335,313.5,805.1335" style="stroke: #1963A0; stroke-width: 1.0;"/><text fill="#000000" font-family="Verdana" font-size="11" lengthAdjust="spacingAndGlyphs" textLength="69" x="318.5" y="806.0083">visible: bool</text><rect fill="none" height="6" style="stroke: #C82930; stroke-width: 1.0;" width="6" x="306.5" y="813.5022"/><text fill="#000000" font-family="Verdana" font-size="11" lengthAdjust="spacingAndGlyphs" textLength="41" x="318.5" y="819.377">bounds</text><rect fill="none" height="6" style="stroke: #C82930; stroke-width: 1.0;" width="6" x="306.5" y="826.8708"/><text fill="#000000" font-family="Verdana" font-size="11" lengthAdjust="spacingAndGlyphs" textLength="73" x="318.5" y="832.7456">graphicsPath</text><rect fill="none" height="6" style="stroke: #C82930; stroke-width: 1.0;" width="6" x="306.5" y="840.2395"/><text fill="#000000" font-family="Verdana" font-size="11" lengthAdjust="spacingAndGlyphs" textLength="50" x="318.5" y="846.1143">selection</text><!--class Master--><rect fill="#F7F7F7" filter="url(#f1ggv0680tkgke)" height="251.1611" id="Master" style="stroke: #01172F; stroke-width: 1.5;" width="210" x="704" y="325"/><ellipse cx="783.25" cy="341" fill="#BFEDC1" rx="11" ry="11" style="stroke: #01172F; stroke-width: 1.0;"/><path d="M787.5156,346.1719 Q785.9375,346.75 783.4844,346.75 Q780.9531,346.75 779.3984,345.2266 Q777.8438,343.7031 777.8438,341.2344 Q777.8438,338.7188 779.3906,337.1563 Q780.9375,335.5938 783.4219,335.5938 Q785.8438,335.5938 787.3594,336.0781 L787.3594,337.9531 Q784.7969,336.8281 783.375,336.8281 Q782.7188,336.8281 781.6563,338.0391 Q780.5938,339.25 780.5938,341.125 Q780.5938,343.0156 781.7969,344.2188 Q783,345.4219 783.8906,345.4219 Q785.0313,345.4219 787.5156,344.5156 L787.5156,346.1719 Z "/><text fill="#000000" font-family="Verdana" font-size="12" lengthAdjust="spacingAndGlyphs" textLength="43" x="803.75" y="345.7725">Master</text><line style="stroke: #01172F; stroke-width: 1.5;" x1="705" x2="913" y1="357" y2="357"/><ellipse cx="715" cy="369.1843" fill="none" rx="3" ry="3" style="stroke: #038048; stroke-width: 1.0;"/><text fill="#000000" font-family="Verdana" font-size="11" lengthAdjust="spacingAndGlyphs" textLength="43" x="724" y="372.0591">id: uuid</text><ellipse cx="715" cy="382.553" fill="none" rx="3" ry="3" style="stroke: #038048; stroke-width: 1.0;"/><text fill="#000000" font-family="Verdana" font-size="11" lengthAdjust="spacingAndGlyphs" textLength="56" x="724" y="385.4277">name: str</text><ellipse cx="715" cy="395.9216" fill="none" rx="3" ry="3" style="stroke: #038048; stroke-width: 1.0;"/><text fill="#000000" font-family="Verdana" font-size="11" lengthAdjust="spacingAndGlyphs" textLength="122" x="724" y="398.7964">location: Dict[str, int]</text><line style="stroke: #01172F; stroke-width: 1.0;" x1="705" x2="913" y1="405.106" y2="405.106"/><ellipse cx="715" cy="417.2903" fill="none" rx="3" ry="3" style="stroke: #038048; stroke-width: 1.0;"/><text fill="#000000" font-family="Verdana" font-size="11" lengthAdjust="spacingAndGlyphs" textLength="91" x="724" y="420.165">alignmentZones</text><ellipse cx="715" cy="430.6589" fill="none" rx="3" ry="3" style="stroke: #038048; stroke-width: 1.0;"/><text fill="#000000" font-family="Verdana" font-size="11" lengthAdjust="spacingAndGlyphs" textLength="95" x="724" y="433.5337">hStems: List[int]</text><ellipse cx="715" cy="444.0276" fill="none" rx="3" ry="3" style="stroke: #038048; stroke-width: 1.0;"/><text fill="#000000" font-family="Verdana" font-size="11" lengthAdjust="spacingAndGlyphs" textLength="43" x="724" y="446.9023">vStems</text><line style="stroke: #01172F; stroke-width: 1.0;" x1="705" x2="913" y1="453.2119" y2="453.2119"/><ellipse cx="715" cy="465.3962" fill="none" rx="3" ry="3" style="stroke: #038048; stroke-width: 1.0;"/><text fill="#000000" font-family="Verdana" font-size="11" lengthAdjust="spacingAndGlyphs" textLength="57" x="724" y="468.271">guidelines</text><ellipse cx="715" cy="478.7649" fill="none" rx="3" ry="3" style="stroke: #038048; stroke-width: 1.0;"/><text fill="#000000" font-family="Verdana" font-size="11" lengthAdjust="spacingAndGlyphs" textLength="184" x="724" y="481.6396">hKerning: Dict[str, Dict[str, int]]</text><ellipse cx="715" cy="492.1335" fill="none" rx="3" ry="3" style="stroke: #038048; stroke-width: 1.0;"/><text fill="#000000" font-family="Verdana" font-size="11" lengthAdjust="spacingAndGlyphs" textLength="51" x="724" y="495.0083">vKerning</text><line style="stroke: #01172F; stroke-width: 1.0;" x1="705" x2="913" y1="501.3179" y2="501.3179"/><ellipse cx="715" cy="513.5022" fill="none" rx="3" ry="3" style="stroke: #038048; stroke-width: 1.0;"/><text fill="#000000" font-family="Verdana" font-size="11" lengthAdjust="spacingAndGlyphs" textLength="75" x="724" y="516.377">ascender: int</text><ellipse cx="715" cy="526.8708" fill="none" rx="3" ry="3" style="stroke: #038048; stroke-width: 1.0;"/><text fill="#000000" font-family="Verdana" font-size="11" lengthAdjust="spacingAndGlyphs" textLength="79" x="724" y="529.7456">capHeight: int</text><ellipse cx="715" cy="540.2395" fill="none" rx="3" ry="3" style="stroke: #038048; stroke-width: 1.0;"/><text fill="#000000" font-family="Verdana" font-size="11" lengthAdjust="spacingAndGlyphs" textLength="82" x="724" y="543.1143">descender: int</text><ellipse cx="715" cy="553.6082" fill="none" rx="3" ry="3" style="stroke: #038048; stroke-width: 1.0;"/><text fill="#000000" font-family="Verdana" font-size="11" lengthAdjust="spacingAndGlyphs" textLength="92" x="724" y="556.4829">italicAngle: float</text><ellipse cx="715" cy="566.9768" fill="none" rx="3" ry="3" style="stroke: #038048; stroke-width: 1.0;"/><text fill="#000000" font-family="Verdana" font-size="11" lengthAdjust="spacingAndGlyphs" textLength="66" x="724" y="569.8516">xHeight: int</text><!--class Path--><rect fill="#F7F7F7" filter="url(#f1ggv0680tkgke)" height="66.7373" id="Path" style="stroke: #01172F; stroke-width: 1.5;" width="99" x="536.5" y="932"/><ellipse cx="568.6" cy="948" fill="#BFEDC1" rx="11" ry="11" style="stroke: #01172F; stroke-width: 1.0;"/><path d="M572.8656,953.1719 Q571.2875,953.75 568.8344,953.75 Q566.3031,953.75 564.7484,952.2266 Q563.1938,950.7031 563.1938,948.2344 Q563.1938,945.7188 564.7406,944.1563 Q566.2875,942.5938 568.7719,942.5938 Q571.1938,942.5938 572.7094,943.0781 L572.7094,944.9531 Q570.1469,943.8281 568.725,943.8281 Q568.0688,943.8281 567.0063,945.0391 Q565.9438,946.25 565.9438,948.125 Q565.9438,950.0156 567.1469,951.2188 Q568.35,952.4219 569.2406,952.4219 Q570.3813,952.4219 572.8656,951.5156 L572.8656,953.1719 Z "/><text fill="#000000" font-family="Verdana" font-size="12" lengthAdjust="spacingAndGlyphs" textLength="29" x="586.4" y="952.7725">Path</text><line style="stroke: #01172F; stroke-width: 1.5;" x1="537.5" x2="634.5" y1="964" y2="964"/><rect fill="none" height="6" style="stroke: #C82930; stroke-width: 1.0;" width="6" x="544.5" y="973.1843"/><text fill="#000000" font-family="Verdana" font-size="11" lengthAdjust="spacingAndGlyphs" textLength="41" x="556.5" y="979.0591">bounds</text><rect fill="none" height="6" style="stroke: #C82930; stroke-width: 1.0;" width="6" x="544.5" y="986.553"/><text fill="#000000" font-family="Verdana" font-size="11" lengthAdjust="spacingAndGlyphs" textLength="73" x="556.5" y="992.4277">graphicsPath</text><!--class Point--><rect fill="#F7F7F7" filter="url(#f1ggv0680tkgke)" height="120.2119" id="Point" style="stroke: #01172F; stroke-width: 1.5;" width="112" x="530" y="1079"/><ellipse cx="566.6" cy="1095" fill="#BFEDC1" rx="11" ry="11" style="stroke: #01172F; stroke-width: 1.0;"/><path d="M570.8656,1100.1719 Q569.2875,1100.75 566.8344,1100.75 Q564.3031,1100.75 562.7484,1099.2266 Q561.1938,1097.7031 561.1938,1095.2344 Q561.1938,1092.7188 562.7406,1091.1563 Q564.2875,1089.5938 566.7719,1089.5938 Q569.1938,1089.5938 570.7094,1090.0781 L570.7094,1091.9531 Q568.1469,1090.8281 566.725,1090.8281 Q566.0688,1090.8281 565.0063,1092.0391 Q563.9438,1093.25 563.9438,1095.125 Q563.9438,1097.0156 565.1469,1098.2188 Q566.35,1099.4219 567.2406,1099.4219 Q568.3813,1099.4219 570.8656,1098.5156 L570.8656,1100.1719 Z "/><text fill="#000000" font-family="Verdana" font-size="12" lengthAdjust="spacingAndGlyphs" textLength="32" x="585.4" y="1099.7725">Point</text><line style="stroke: #01172F; stroke-width: 1.5;" x1="531" x2="641" y1="1111" y2="1111"/><ellipse cx="541" cy="1123.1843" fill="none" rx="3" ry="3" style="stroke: #038048; stroke-width: 1.0;"/><text fill="#000000" font-family="Verdana" font-size="11" lengthAdjust="spacingAndGlyphs" textLength="61" x="550" y="1126.0591">x: Number</text><ellipse cx="541" cy="1136.553" fill="none" rx="3" ry="3" style="stroke: #038048; stroke-width: 1.0;"/><text fill="#000000" font-family="Verdana" font-size="11" lengthAdjust="spacingAndGlyphs" textLength="61" x="550" y="1139.4277">y: Number</text><ellipse cx="541" cy="1149.9216" fill="none" rx="3" ry="3" style="stroke: #038048; stroke-width: 1.0;"/><text fill="#000000" font-family="Verdana" font-size="11" lengthAdjust="spacingAndGlyphs" textLength="49" x="550" y="1152.7964">type: str</text><ellipse cx="541" cy="1163.2903" fill="none" rx="3" ry="3" style="stroke: #038048; stroke-width: 1.0;"/><text fill="#000000" font-family="Verdana" font-size="11" lengthAdjust="spacingAndGlyphs" textLength="75" x="550" y="1166.165">smooth: bool</text><polygon fill="none" points="541,1172.6589,537,1178.6589,545,1178.6589" style="stroke: #1963A0; stroke-width: 1.0;"/><text fill="#000000" font-family="Verdana" font-size="11" lengthAdjust="spacingAndGlyphs" textLength="86" x="550" y="1179.5337">extraData: dict</text><rect fill="none" height="6" style="stroke: #C82930; stroke-width: 1.0;" width="6" x="538" y="1187.0276"/><text fill="#000000" font-family="Verdana" font-size="11" lengthAdjust="spacingAndGlyphs" textLength="47" x="550" y="1192.9023">selected</text><!--link Font to Axis--><path d="M274.005,196.63 C227.03,230.446 170.801,275.85 129,325 C110.686,346.534 94.8017,373.578 82.8148,396.954 " fill="none" id="Font-Axis" style="stroke: #7A6563; stroke-width: 1.0;"/><polygon fill="#7A6563" points="284.803,188.94,277.5953,189.1623,275.0283,195.901,282.236,195.6787,284.803,188.94" style="stroke: #7A6563; stroke-width: 1.0;"/><text fill="#000000" font-family="Verdana" font-size="13" lengthAdjust="spacingAndGlyphs" textLength="30" x="247.0023" y="190.784">axes</text><text fill="#000000" font-family="Verdana" font-size="13" lengthAdjust="spacingAndGlyphs" textLength="60" x="21.9063" y="386.1279">Dict[tag]</text><!--link Font to Feature--><path d="M282.646,276.816 C273.53,292.991 264.48,309.31 256,325 C239.356,355.794 221.429,391.491 208.971,416.745 " fill="none" id="Font-Feature" style="stroke: #7A6563; stroke-width: 1.0;"/><polygon fill="#7A6563" points="289.288,265.074,282.8523,268.327,283.3798,275.5188,289.8155,272.2658,289.288,265.074" style="stroke: #7A6563; stroke-width: 1.0;"/><text fill="#000000" font-family="Verdana" font-size="13" lengthAdjust="spacingAndGlyphs" textLength="55" x="228.6983" y="285.6201">features</text><text fill="#000000" font-family="Verdana" font-size="13" lengthAdjust="spacingAndGlyphs" textLength="60" x="146.0775" y="406.4155">Dict[tag]</text><!--link Font to Glyph--><path d="M364,278.514 C364,311.849 364,346.105 364,375.118 " fill="none" id="Font-Glyph" style="stroke: #7A6563; stroke-width: 1.0;"/><polygon fill="#7A6563" points="364,265.303,360,271.303,364,277.303,368,271.303,364,265.303" style="stroke: #7A6563; stroke-width: 1.0;"/><text fill="#000000" font-family="Verdana" font-size="13" lengthAdjust="spacingAndGlyphs" textLength="42" x="320.9172" y="285.4337">glyphs</text><text fill="#000000" font-family="Verdana" font-size="13" lengthAdjust="spacingAndGlyphs" textLength="73" x="287.2359" y="364.7035">Dict[name]</text><!--link Font to Instance--><path d="M450.816,263.484 C474.623,298.032 499.836,334.62 521.545,366.123 " fill="none" id="Font-Instance" style="stroke: #7A6563; stroke-width: 1.0;"/><polygon fill="#7A6563" points="443.142,252.348,443.2526,259.5583,449.9507,262.2294,449.8401,255.0191,443.142,252.348" style="stroke: #7A6563; stroke-width: 1.0;"/><text fill="#000000" font-family="Verdana" font-size="13" lengthAdjust="spacingAndGlyphs" textLength="63" x="450.9215" y="258.0807">instances</text><text fill="#000000" font-family="Verdana" font-size="13" lengthAdjust="spacingAndGlyphs" textLength="23" x="492.1882" y="355.7451">List</text><!--link Font to Master--><path d="M454.869,182.12 C521.691,216.865 613.168,268.547 686,325 C692.004,329.654 698.008,334.585 703.955,339.697 " fill="none" id="Font-Master" style="stroke: #7A6563; stroke-width: 1.0;"/><polygon fill="#7A6563" points="443.108,176.05,446.6055,182.3562,453.7717,181.5532,450.2743,175.247,443.108,176.05" style="stroke: #7A6563; stroke-width: 1.0;"/><text fill="#000000" font-family="Verdana" font-size="13" lengthAdjust="spacingAndGlyphs" textLength="52" x="451.1553" y="176.6223">masters</text><text fill="#000000" font-family="Verdana" font-size="13" lengthAdjust="spacingAndGlyphs" textLength="23" x="673.1246" y="329.8398">List</text><!--link Glyph to Layer--><path d="M364,539.038 C364,569.477 364,603.971 364,635.818 " fill="none" id="Glyph-Layer" style="stroke: #7A6563; stroke-width: 1.0;"/><polygon fill="#7A6563" points="364,525.812,360,531.812,364,537.812,368,531.812,364,525.812" style="stroke: #7A6563; stroke-width: 1.0;"/><text fill="#000000" font-family="Verdana" font-size="13" lengthAdjust="spacingAndGlyphs" textLength="39" x="323.3242" y="546.0508">layers</text><text fill="#000000" font-family="Verdana" font-size="13" lengthAdjust="spacingAndGlyphs" textLength="23" x="340.1555" y="625.4062">List</text><!--link Layer to Anchor--><path d="M288.68,815.653 C250.632,851.343 205.821,893.378 173.539,923.659 " fill="none" id="Layer-Anchor" style="stroke: #7A6563; stroke-width: 1.0;"/><polygon fill="#7A6563" points="298.195,806.727,291.0824,807.9147,289.4431,814.937,296.5557,813.7493,298.195,806.727" style="stroke: #7A6563; stroke-width: 1.0;"/><text fill="#000000" font-family="Verdana" font-size="13" lengthAdjust="spacingAndGlyphs" textLength="52" x="238.5924" y="809.3859">anchors</text><text fill="#000000" font-family="Verdana" font-size="13" lengthAdjust="spacingAndGlyphs" textLength="73" x="178.9146" y="914.7849">Dict[name]</text><!--link Layer to Component--><path d="M319.371,864.463 C311.131,886.521 303.088,908.05 296.588,925.451 " fill="none" id="Layer-Component" style="stroke: #7A6563; stroke-width: 1.0;"/><polygon fill="#7A6563" points="323.961,852.178,318.1145,856.3992,319.7624,863.4195,325.6089,859.1983,323.961,852.178" style="stroke: #7A6563; stroke-width: 1.0;"/><text fill="#000000" font-family="Verdana" font-size="13" lengthAdjust="spacingAndGlyphs" textLength="80" x="238.3333" y="873.3946">components</text><text fill="#000000" font-family="Verdana" font-size="13" lengthAdjust="spacingAndGlyphs" textLength="23" x="274.1574" y="914.8179">List</text><!--link Layer to Guideline--><path d="M408.767,864.834 C414.933,881.34 420.985,897.538 426.357,911.92 " fill="none" id="Layer-Guideline" style="stroke: #7A6563; stroke-width: 1.0;"/><polygon fill="#7A6563" points="404.039,852.178,402.3911,859.1983,408.2376,863.4195,409.8855,856.3992,404.039,852.178" style="stroke: #7A6563; stroke-width: 1.0;"/><text fill="#000000" font-family="Verdana" font-size="13" lengthAdjust="spacingAndGlyphs" textLength="64" x="340.6042" y="873.3946">guidelines</text><text fill="#000000" font-family="Verdana" font-size="13" lengthAdjust="spacingAndGlyphs" textLength="23" x="398.7829" y="901.0889">List</text><!--link Layer to Path--><path d="M439.37,819.522 C477.98,857.697 523.023,902.232 552.893,931.766 " fill="none" id="Layer-Path" style="stroke: #7A6563; stroke-width: 1.0;"/><polygon fill="#7A6563" points="429.706,809.966,431.1597,817.029,438.2386,818.4037,436.7849,811.3406,429.706,809.966" style="stroke: #7A6563; stroke-width: 1.0;"/><text fill="#000000" font-family="Verdana" font-size="13" lengthAdjust="spacingAndGlyphs" textLength="37" x="437.4687" y="813.443">paths</text><text fill="#000000" font-family="Verdana" font-size="13" lengthAdjust="spacingAndGlyphs" textLength="23" x="520.6928" y="921.4408">List</text><!--link Path to Point--><path d="M586,1012.263 C586,1032.666 586,1056.961 586,1078.731 " fill="none" id="Path-Point" style="stroke: #7A6563; stroke-width: 1.0;"/><polygon fill="#7A6563" points="586,999.162,582,1005.162,586,1011.162,590,1005.162,586,999.162" style="stroke: #7A6563; stroke-width: 1.0;"/><text fill="#000000" font-family="Verdana" font-size="13" lengthAdjust="spacingAndGlyphs" textLength="40" x="542.3125" y="1019.919">points</text><text fill="#000000" font-family="Verdana" font-size="13" lengthAdjust="spacingAndGlyphs" textLength="23" x="561.5266" y="1068.1556">List</text><!--
@startuml

skinparam defaultFontName Verdana
skinparam circledCharacterFontName "Lucida Console"
skinparam stereotypeCBackgroundColor #BFEDC1
skinparam class {
  ArrowColor #7A6563
  BackgroundColor #F7F7F7
  BorderColor #01172F
}

class Anchor {
  + x: Number
  + y: Number
  + name: str
  - selected
}

class Axis {
  + minimum: int
  + maximum: int
  + default: int
  + tag: str[4]
  + name: str?
}

class Component {
  + glyphName: str
  ~ transformation: tuple
  - selected
}

class Feature {
  + tag: str[4]
  + content: str
}

class Font {
  + date: datetime
  + familyName: str
  - - -
  + copyright: str
  + designer: str
  + designerURL: str
  + manufacturer: str
  + manufacturerURL: str
  + unitsPerEm: int
  + versionMajor: int
  + versionMinor: int
  - - -
  + extraData: dict
  - cmap: dict
  - layoutEngine
  - modified: bool
  - selectedMaster: Master
}

class Glyph {
  + name: str
  + unicodes: List[str]
  - - -
  + {l,r,b,t}KerningGroup: str?
  - - -
  + color: tuple
  ~ extraData: dict
  - lastModified: float?
  - selected
}

class Guideline {
  + x: Number
  + y: Number
  + angle: Number
  + name: str?
  - selected
}

class Instance {
  + familyName: str
  + styleName: str
  + location: Dict[str, int]
  - - -
  + bold: bool
  + italic: bool
  + preferredFamilyName: str?
  + preferredSubfamilyName
  + postscriptFontName
  + postscriptFullName
}

class Layer {
  + masterId: uuid
  + masterLayer: bool
  ~ name: str
  - - -
  + width: Number
  + height: Number
  + yOrigin: Number?
  - - -
  + color: tuple
  ~ extraData: dict
  ~ visible: bool
  - bounds
  - graphicsPath
  - selection
}

class Master {
  + id: uuid
  + name: str
  + location: Dict[str, int]
  - - -
  + alignmentZones
  + hStems: List[int]
  + vStems
  - - -
  + guidelines
  + hKerning: Dict[str, Dict[str, int]]
  + vKerning
  - - -
  + ascender: int
  + capHeight: int
  + descender: int
  + italicAngle: float
  + xHeight: int
}

class Path {
  - bounds
  - graphicsPath
}

class Point {
  + x: Number
  + y: Number
  + type: str
  + smooth: bool
  ~ extraData: dict
  - selected
}

Font "axes" *- - "Dict[tag]" Axis
Font "features" *- - "Dict[tag]" Feature
Font "glyphs" *- - "Dict[name]" Glyph
Font "instances" *- - "List" Instance
Font "masters" *- - "List" Master
Glyph "layers" *- - "List" Layer
Layer "anchors" *- - "Dict[name]" Anchor
Layer "components" *- - "List" Component
Layer "guidelines" *- - "List" Guideline
Layer "paths" *- - "List" Path
Path "points" *- - "List" Point

hide empty members
hide empty methods

@enduml

PlantUML version 1.2018.01(Sun Jan 28 19:08:22 CET 2018)
(GPL source distribution)
Java Runtime: Java(TM) SE Runtime Environment
JVM: Java HotSpot(TM) 64-Bit Server VM
Java Version: 1.8.0_131-b11
Operating System: Windows 10
OS Version: 10.0
Default Encoding: Cp1252
Language: fr
Country: FR
--></g></svg>